<svg width="201" height="101" viewBox="0 0 201 101" fill="none" xmlns="http://www.w3.org/2000/svg">
<path d="M0.367938 28.1046C0.0114985 28.3156 -0.106397 28.7756 0.10461 29.1321C0.315617 29.4885 0.775623 29.6064 1.13206 29.3954L0.75 28.75L0.367938 28.1046ZM200.75 28.75L196.451 21.2322L192.09 28.7142L200.75 28.75ZM0.75 28.75L1.13206 29.3954C1.96734 28.9009 2.80532 28.4125 3.64596 27.9301L3.27268 27.2796L2.89941 26.6291C2.05287 27.1148 1.20903 27.6067 0.367938 28.1046L0.75 28.75ZM8.37682 24.4429L8.73211 25.1034C10.4423 24.1835 12.163 23.2884 13.8939 22.4186L13.5571 21.7484L13.2203 21.0783C11.477 21.9544 9.74394 22.8559 8.02153 23.7824L8.37682 24.4429ZM18.8107 19.2003L19.1284 19.8797C20.8867 19.0575 22.6549 18.261 24.4327 17.4907L24.1345 16.8026L23.8364 16.1144C22.0453 16.8904 20.2641 17.6927 18.493 18.521L18.8107 19.2003ZM29.5256 14.5588L29.8037 15.2553C31.6055 14.5359 33.4167 13.8432 35.2371 13.1775L34.9795 12.4731L34.722 11.7688C32.8878 12.4395 31.0628 13.1375 29.2475 13.8623L29.5256 14.5588ZM40.4925 10.5491L40.7291 11.2608C42.5691 10.649 44.418 10.0648 46.2754 9.50832L46.0602 8.78986L45.845 8.07141C43.9731 8.63215 42.11 9.22093 40.2558 9.83735L40.4925 10.5491ZM51.6784 7.19863L51.8718 7.92325C53.7442 7.42337 55.6247 6.95162 57.5133 6.50837L57.3419 5.77821L57.1706 5.04805C55.2672 5.49478 53.3718 5.97023 51.4849 6.47402L51.6784 7.19863ZM63.0461 4.53099L63.1951 5.26604C65.0933 4.88131 66.9991 4.52527 68.9123 4.19829L68.786 3.45901L68.6596 2.71973C66.7312 3.04931 64.8103 3.40816 62.8971 3.79593L63.0461 4.53099ZM74.5564 2.56395L74.6599 3.30677C76.5769 3.03958 78.501 2.80149 80.4317 2.59286L80.3511 1.8472L80.2706 1.10154C78.3245 1.31184 76.3851 1.55182 74.4528 1.82113L74.5564 2.56395ZM86.165 1.30952L86.2225 2.05731C88.1512 1.90889 90.0863 1.78982 92.0275 1.70046L91.993 0.951252L91.9585 0.202045C90.0019 0.292119 88.0515 0.412134 86.1074 0.561736L86.165 1.30952ZM97.8298 0.772333L97.8413 1.52225C98.8095 1.50743 99.779 1.5 100.75 1.5V0.75V0C99.7714 0 98.7942 0.00748789 97.8184 0.0224207L97.8298 0.772333ZM100.75 0.75V1.5C101.721 1.5 102.691 1.50743 103.659 1.52225L103.67 0.772333L103.682 0.0224208C102.706 0.00748795 101.729 0 100.75 0V0.75ZM109.507 0.951252L109.473 1.70046C111.414 1.78982 113.349 1.90889 115.277 2.05731L115.335 1.30953L115.393 0.561736C113.449 0.412134 111.498 0.29212 109.542 0.202046L109.507 0.951252ZM121.149 1.8472L121.068 2.59286C122.999 2.80149 124.923 3.03958 126.84 3.30677L126.944 2.56395L127.047 1.82113C125.115 1.55182 123.176 1.31184 121.229 1.10154L121.149 1.8472ZM132.714 3.45901L132.588 4.19829C134.501 4.52527 136.407 4.88131 138.305 5.26604L138.454 4.53099L138.603 3.79593C136.69 3.40816 134.769 3.04931 132.84 2.71973L132.714 3.45901ZM144.158 5.77821L143.987 6.50837C145.875 6.95161 147.756 7.42336 149.628 7.92325L149.822 7.19863L150.015 6.47401C148.128 5.97022 146.233 5.49478 144.329 5.04805L144.158 5.77821ZM155.44 8.78986L155.225 9.50832C157.082 10.0648 158.931 10.649 160.771 11.2607L161.008 10.549L161.244 9.83735C159.39 9.22092 157.527 8.63215 155.655 8.0714L155.44 8.78986ZM166.52 12.4731L166.263 13.1775C168.083 13.8432 169.894 14.5359 171.696 15.2553L171.974 14.5588L172.253 13.8623C170.437 13.1375 168.612 12.4395 166.778 11.7687L166.52 12.4731ZM177.365 16.8026L177.067 17.4907C178.845 18.261 180.613 19.0575 182.372 19.8797L182.689 19.2003L183.007 18.521C181.236 17.6927 179.455 16.8904 177.664 16.1144L177.365 16.8026ZM187.943 21.7485L187.606 22.4186C189.337 23.2884 191.058 24.1835 192.768 25.1034L193.123 24.4429L193.478 23.7824C191.756 22.8559 190.023 21.9544 188.28 21.0783L187.943 21.7485ZM0.367938 28.1046C0.0114985 28.3156 -0.106397 28.7756 0.10461 29.1321C0.315617 29.4885 0.775623 29.6064 1.13206 29.3954L0.75 28.75L0.367938 28.1046ZM200.75 28.75L196.451 21.2322L192.09 28.7142L200.75 28.75ZM0.75 28.75L1.13206 29.3954C1.96734 28.9009 2.80532 28.4125 3.64596 27.9301L3.27268 27.2796L2.89941 26.6291C2.05287 27.1148 1.20903 27.6067 0.367938 28.1046L0.75 28.75ZM8.37682 24.4429L8.73211 25.1034C10.4423 24.1835 12.163 23.2884 13.8939 22.4186L13.5571 21.7484L13.2203 21.0783C11.477 21.9544 9.74394 22.8559 8.02153 23.7824L8.37682 24.4429ZM18.8107 19.2003L19.1284 19.8797C20.8867 19.0575 22.6549 18.261 24.4327 17.4907L24.1345 16.8026L23.8364 16.1144C22.0453 16.8904 20.2641 17.6927 18.493 18.521L18.8107 19.2003ZM29.5256 14.5588L29.8037 15.2553C31.6055 14.5359 33.4167 13.8432 35.2371 13.1775L34.9795 12.4731L34.722 11.7688C32.8878 12.4395 31.0628 13.1375 29.2475 13.8623L29.5256 14.5588ZM40.4925 10.5491L40.7291 11.2608C42.5691 10.649 44.418 10.0648 46.2754 9.50832L46.0602 8.78986L45.845 8.07141C43.9731 8.63215 42.11 9.22093 40.2558 9.83735L40.4925 10.5491ZM51.6784 7.19863L51.8718 7.92325C53.7442 7.42337 55.6247 6.95162 57.5133 6.50837L57.3419 5.77821L57.1706 5.04805C55.2672 5.49478 53.3718 5.97023 51.4849 6.47402L51.6784 7.19863ZM63.0461 4.53099L63.1951 5.26604C65.0933 4.88131 66.9991 4.52527 68.9123 4.19829L68.786 3.45901L68.6596 2.71973C66.7312 3.04931 64.8103 3.40816 62.8971 3.79593L63.0461 4.53099ZM74.5564 2.56395L74.6599 3.30677C76.5769 3.03958 78.501 2.80149 80.4317 2.59286L80.3511 1.8472L80.2706 1.10154C78.3245 1.31184 76.3851 1.55182 74.4528 1.82113L74.5564 2.56395ZM86.165 1.30952L86.2225 2.05731C88.1512 1.90889 90.0863 1.78982 92.0275 1.70046L91.993 0.951252L91.9585 0.202045C90.0019 0.292119 88.0515 0.412134 86.1074 0.561736L86.165 1.30952ZM97.8298 0.772333L97.8413 1.52225C98.8095 1.50743 99.779 1.5 100.75 1.5V0.75V0C99.7714 0 98.7942 0.00748789 97.8184 0.0224207L97.8298 0.772333ZM100.75 0.75V1.5C101.721 1.5 102.691 1.50743 103.659 1.52225L103.67 0.772333L103.682 0.0224208C102.706 0.00748795 101.729 0 100.75 0V0.75ZM109.507 0.951252L109.473 1.70046C111.414 1.78982 113.349 1.90889 115.277 2.05731L115.335 1.30953L115.393 0.561736C113.449 0.412134 111.498 0.29212 109.542 0.202046L109.507 0.951252ZM121.149 1.8472L121.068 2.59286C122.999 2.80149 124.923 3.03958 126.84 3.30677L126.944 2.56395L127.047 1.82113C125.115 1.55182 123.176 1.31184 121.229 1.10154L121.149 1.8472ZM132.714 3.45901L132.588 4.19829C134.501 4.52527 136.407 4.88131 138.305 5.26604L138.454 4.53099L138.603 3.79593C136.69 3.40816 134.769 3.04931 132.84 2.71973L132.714 3.45901ZM144.158 5.77821L143.987 6.50837C145.875 6.95161 147.756 7.42336 149.628 7.92325L149.822 7.19863L150.015 6.47401C148.128 5.97022 146.233 5.49478 144.329 5.04805L144.158 5.77821ZM155.44 8.78986L155.225 9.50832C157.082 10.0648 158.931 10.649 160.771 11.2607L161.008 10.549L161.244 9.83735C159.39 9.22092 157.527 8.63215 155.655 8.0714L155.44 8.78986ZM166.52 12.4731L166.263 13.1775C168.083 13.8432 169.894 14.5359 171.696 15.2553L171.974 14.5588L172.253 13.8623C170.437 13.1375 168.612 12.4395 166.778 11.7687L166.52 12.4731ZM177.365 16.8026L177.067 17.4907C178.845 18.261 180.613 19.0575 182.372 19.8797L182.689 19.2003L183.007 18.521C181.236 17.6927 179.455 16.8904 177.664 16.1144L177.365 16.8026ZM187.943 21.7485L187.606 22.4186C189.337 23.2884 191.058 24.1835 192.768 25.1034L193.123 24.4429L193.478 23.7824C191.756 22.8559 190.023 21.9544 188.28 21.0783L187.943 21.7485Z" fill="#AFAFAF"/>
</svg>
