<svg width="201" height="101" viewBox="0 0 201 101" fill="none" xmlns="http://www.w3.org/2000/svg">
<path d="M0.367938 72.6454C0.0114985 72.4344 -0.106397 71.9744 0.10461 71.6179C0.315617 71.2615 0.775623 71.1436 1.13206 71.3546L0.75 72L0.367938 72.6454ZM200.75 72L196.451 79.5178L192.09 72.0358L200.75 72ZM0.75 72L1.13206 71.3546C1.96734 71.8491 2.80532 72.3375 3.64596 72.8199L3.27268 73.4704L2.89941 74.1209C2.05287 73.6352 1.20903 73.1433 0.367938 72.6454L0.75 72ZM8.37682 76.3071L8.73211 75.6466C10.4423 76.5665 12.163 77.4616 13.8939 78.3314L13.5571 79.0016L13.2203 79.6717C11.477 78.7956 9.74394 77.8941 8.02153 76.9676L8.37682 76.3071ZM18.8107 81.5497L19.1284 80.8703C20.8867 81.6925 22.6549 82.489 24.4327 83.2593L24.1345 83.9474L23.8364 84.6356C22.0453 83.8596 20.2641 83.0573 18.493 82.229L18.8107 81.5497ZM29.5256 86.1912L29.8037 85.4947C31.6055 86.2141 33.4167 86.9068 35.2371 87.5725L34.9795 88.2769L34.722 88.9812C32.8878 88.3105 31.0628 87.6125 29.2475 86.8877L29.5256 86.1912ZM40.4925 90.2009L40.7291 89.4892C42.5691 90.101 44.418 90.6852 46.2754 91.2417L46.0602 91.9601L45.845 92.6786C43.9731 92.1178 42.11 91.5291 40.2558 90.9126L40.4925 90.2009ZM51.6784 93.5514L51.8718 92.8267C53.7442 93.3266 55.6247 93.7984 57.5133 94.2416L57.3419 94.9718L57.1706 95.7019C55.2672 95.2552 53.3718 94.7798 51.4849 94.276L51.6784 93.5514ZM63.0461 96.219L63.1951 95.484C65.0933 95.8687 66.9991 96.2247 68.9123 96.5517L68.786 97.291L68.6596 98.0303C66.7312 97.7007 64.8103 97.3418 62.8971 96.9541L63.0461 96.219ZM74.5564 98.186L74.6599 97.4432C76.5769 97.7104 78.501 97.9485 80.4317 98.1571L80.3511 98.9028L80.2706 99.6485C78.3245 99.4382 76.3851 99.1982 74.4528 98.9289L74.5564 98.186ZM86.165 99.4405L86.2225 98.6927C88.1512 98.8411 90.0863 98.9602 92.0275 99.0495L91.993 99.7987L91.9585 100.548C90.0019 100.458 88.0515 100.338 86.1074 100.188L86.165 99.4405ZM97.8298 99.9777L97.8413 99.2278C98.8095 99.2426 99.779 99.25 100.75 99.25V100V100.75C99.7714 100.75 98.7942 100.743 97.8184 100.728L97.8298 99.9777ZM100.75 100V99.25C101.721 99.25 102.691 99.2426 103.659 99.2278L103.67 99.9777L103.682 100.728C102.706 100.743 101.729 100.75 100.75 100.75V100ZM109.507 99.7987L109.473 99.0495C111.414 98.9602 113.349 98.8411 115.277 98.6927L115.335 99.4405L115.393 100.188C113.449 100.338 111.498 100.458 109.542 100.548L109.507 99.7987ZM121.149 98.9028L121.068 98.1571C122.999 97.9485 124.923 97.7104 126.84 97.4432L126.944 98.186L127.047 98.9289C125.115 99.1982 123.176 99.4382 121.229 99.6485L121.149 98.9028ZM132.714 97.291L132.588 96.5517C134.501 96.2247 136.407 95.8687 138.305 95.484L138.454 96.219L138.603 96.9541C136.69 97.3418 134.769 97.7007 132.84 98.0303L132.714 97.291ZM144.158 94.9718L143.987 94.2416C145.875 93.7984 147.756 93.3266 149.628 92.8267L149.822 93.5514L150.015 94.276C148.128 94.7798 146.233 95.2552 144.329 95.7019L144.158 94.9718ZM155.44 91.9601L155.225 91.2417C157.082 90.6852 158.931 90.101 160.771 89.4893L161.008 90.201L161.244 90.9126C159.39 91.5291 157.527 92.1178 155.655 92.6786L155.44 91.9601ZM166.52 88.2769L166.263 87.5725C168.083 86.9068 169.894 86.2141 171.696 85.4947L171.974 86.1912L172.253 86.8877C170.437 87.6125 168.612 88.3105 166.778 88.9813L166.52 88.2769ZM177.365 83.9474L177.067 83.2593C178.845 82.489 180.613 81.6925 182.372 80.8703L182.689 81.5497L183.007 82.229C181.236 83.0573 179.455 83.8596 177.664 84.6356L177.365 83.9474ZM187.943 79.0015L187.606 78.3314C189.337 77.4616 191.058 76.5665 192.768 75.6466L193.123 76.3071L193.478 76.9676C191.756 77.8941 190.023 78.7956 188.28 79.6717L187.943 79.0015ZM0.367938 72.6454C0.0114985 72.4344 -0.106397 71.9744 0.10461 71.6179C0.315617 71.2615 0.775623 71.1436 1.13206 71.3546L0.75 72L0.367938 72.6454ZM200.75 72L196.451 79.5178L192.09 72.0358L200.75 72ZM0.75 72L1.13206 71.3546C1.96734 71.8491 2.80532 72.3375 3.64596 72.8199L3.27268 73.4704L2.89941 74.1209C2.05287 73.6352 1.20903 73.1433 0.367938 72.6454L0.75 72ZM8.37682 76.3071L8.73211 75.6466C10.4423 76.5665 12.163 77.4616 13.8939 78.3314L13.5571 79.0016L13.2203 79.6717C11.477 78.7956 9.74394 77.8941 8.02153 76.9676L8.37682 76.3071ZM18.8107 81.5497L19.1284 80.8703C20.8867 81.6925 22.6549 82.489 24.4327 83.2593L24.1345 83.9474L23.8364 84.6356C22.0453 83.8596 20.2641 83.0573 18.493 82.229L18.8107 81.5497ZM29.5256 86.1912L29.8037 85.4947C31.6055 86.2141 33.4167 86.9068 35.2371 87.5725L34.9795 88.2769L34.722 88.9812C32.8878 88.3105 31.0628 87.6125 29.2475 86.8877L29.5256 86.1912ZM40.4925 90.2009L40.7291 89.4892C42.5691 90.101 44.418 90.6852 46.2754 91.2417L46.0602 91.9601L45.845 92.6786C43.9731 92.1178 42.11 91.5291 40.2558 90.9126L40.4925 90.2009ZM51.6784 93.5514L51.8718 92.8267C53.7442 93.3266 55.6247 93.7984 57.5133 94.2416L57.3419 94.9718L57.1706 95.7019C55.2672 95.2552 53.3718 94.7798 51.4849 94.276L51.6784 93.5514ZM63.0461 96.219L63.1951 95.484C65.0933 95.8687 66.9991 96.2247 68.9123 96.5517L68.786 97.291L68.6596 98.0303C66.7312 97.7007 64.8103 97.3418 62.8971 96.9541L63.0461 96.219ZM74.5564 98.186L74.6599 97.4432C76.5769 97.7104 78.501 97.9485 80.4317 98.1571L80.3511 98.9028L80.2706 99.6485C78.3245 99.4382 76.3851 99.1982 74.4528 98.9289L74.5564 98.186ZM86.165 99.4405L86.2225 98.6927C88.1512 98.8411 90.0863 98.9602 92.0275 99.0495L91.993 99.7987L91.9585 100.548C90.0019 100.458 88.0515 100.338 86.1074 100.188L86.165 99.4405ZM97.8298 99.9777L97.8413 99.2278C98.8095 99.2426 99.779 99.25 100.75 99.25V100V100.75C99.7714 100.75 98.7942 100.743 97.8184 100.728L97.8298 99.9777ZM100.75 100V99.25C101.721 99.25 102.691 99.2426 103.659 99.2278L103.67 99.9777L103.682 100.728C102.706 100.743 101.729 100.75 100.75 100.75V100ZM109.507 99.7987L109.473 99.0495C111.414 98.9602 113.349 98.8411 115.277 98.6927L115.335 99.4405L115.393 100.188C113.449 100.338 111.498 100.458 109.542 100.548L109.507 99.7987ZM121.149 98.9028L121.068 98.1571C122.999 97.9485 124.923 97.7104 126.84 97.4432L126.944 98.186L127.047 98.9289C125.115 99.1982 123.176 99.4382 121.229 99.6485L121.149 98.9028ZM132.714 97.291L132.588 96.5517C134.501 96.2247 136.407 95.8687 138.305 95.484L138.454 96.219L138.603 96.9541C136.69 97.3418 134.769 97.7007 132.84 98.0303L132.714 97.291ZM144.158 94.9718L143.987 94.2416C145.875 93.7984 147.756 93.3266 149.628 92.8267L149.822 93.5514L150.015 94.276C148.128 94.7798 146.233 95.2552 144.329 95.7019L144.158 94.9718ZM155.44 91.9601L155.225 91.2417C157.082 90.6852 158.931 90.101 160.771 89.4893L161.008 90.201L161.244 90.9126C159.39 91.5291 157.527 92.1178 155.655 92.6786L155.44 91.9601ZM166.52 88.2769L166.263 87.5725C168.083 86.9068 169.894 86.2141 171.696 85.4947L171.974 86.1912L172.253 86.8877C170.437 87.6125 168.612 88.3105 166.778 88.9813L166.52 88.2769ZM177.365 83.9474L177.067 83.2593C178.845 82.489 180.613 81.6925 182.372 80.8703L182.689 81.5497L183.007 82.229C181.236 83.0573 179.455 83.8596 177.664 84.6356L177.365 83.9474ZM187.943 79.0015L187.606 78.3314C189.337 77.4616 191.058 76.5665 192.768 75.6466L193.123 76.3071L193.478 76.9676C191.756 77.8941 190.023 78.7956 188.28 79.6717L187.943 79.0015Z" fill="#AFAFAF"/>
</svg>
