<svg width="150" height="100" viewBox="0 0 150 100" fill="none" xmlns="http://www.w3.org/2000/svg">
<g clip-path="url(#clip0_132_1779)">
<path d="M116.002 84.6891H12.2104V16.7965C12.2119 15.7899 12.6124 14.825 13.3242 14.1133C14.036 13.4016 15.0009 13.0013 16.0075 13H112.205C113.211 13.0012 114.176 13.4016 114.888 14.1133C115.6 14.825 116 15.7899 116.002 16.7965V84.6891Z" fill="#090814"/>
<path d="M112.752 17.6283H15.0664V79.076H112.752V17.6283Z" fill="white"/>
<path d="M120.247 87.0525H8.37038L1.20931 85.6895C0.869318 85.6244 0.562622 85.4429 0.341931 85.1762C0.12124 84.9095 0.000337751 84.5743 0 84.2281V82.7175H127.819V84.2497C127.818 84.5908 127.7 84.9212 127.485 85.186C127.27 85.4508 126.97 85.634 126.637 85.7051L120.247 87.0498V87.0525Z" fill="#CCCCCC"/>
<path d="M72.7837 84.6889H55.0369C54.5965 84.6883 54.1742 84.5131 53.8628 84.2016C53.5513 83.8902 53.3761 83.468 53.3755 83.0275V82.7194H74.4489V83.0275C74.4483 83.468 74.2731 83.8902 73.9616 84.2016C73.6502 84.5131 73.228 84.6883 72.7875 84.6889H72.7837Z" fill="#2F2E41"/>
<path d="M43.6364 45.4935H20.4426C20.0757 45.4931 19.724 45.3472 19.4645 45.0878C19.2051 44.8283 19.0592 44.4766 19.0588 44.1097V26.7673C19.0592 26.4004 19.2051 26.0487 19.4645 25.7892C19.724 25.5298 20.0757 25.3839 20.4426 25.3835H43.6364C44.0033 25.3839 44.3551 25.5298 44.6145 25.7892C44.874 26.0487 45.0199 26.4004 45.0202 26.7673V44.1085C45.0199 44.4754 44.874 44.8272 44.6145 45.0866C44.3551 45.3461 44.0033 45.492 43.6364 45.4923V45.4935Z" fill="#CCCCCC"/>
<path d="M20.4417 26.1119C20.268 26.1122 20.1015 26.1813 19.9786 26.3042C19.8558 26.427 19.7866 26.5936 19.7864 26.7673V44.1089C19.7866 44.2826 19.8558 44.4492 19.9786 44.5721C20.1015 44.6949 20.268 44.764 20.4417 44.7643H43.636C43.8097 44.764 43.9763 44.6949 44.0991 44.5721C44.222 44.4492 44.2911 44.2826 44.2913 44.1089V26.7673C44.2911 26.5936 44.222 26.427 44.0991 26.3042C43.9763 26.1813 43.8097 26.1122 43.636 26.1119H20.4417Z" fill="white"/>
<path d="M21.4738 27.4069H30.7627C30.8602 27.4069 30.9538 27.4456 31.0228 27.5146C31.0918 27.5836 31.1305 27.6771 31.1305 27.7747V32.2813C31.1305 32.3788 31.0918 32.4724 31.0228 32.5414C30.9538 32.6103 30.8602 32.6491 30.7627 32.6491H21.4738C21.3762 32.6491 21.2827 32.6103 21.2137 32.5414C21.1447 32.4724 21.106 32.3788 21.106 32.2813V27.7747C21.106 27.6771 21.1447 27.5836 21.2137 27.5146C21.2827 27.4456 21.3762 27.4069 21.4738 27.4069Z" fill="#FFC428"/>
<path d="M32.4181 27.4069H42.6269C42.6752 27.4068 42.7231 27.4162 42.7679 27.4346C42.8126 27.4531 42.8532 27.4802 42.8875 27.5143C42.9217 27.5485 42.9488 27.5891 42.9674 27.6337C42.9859 27.6784 42.9955 27.7263 42.9955 27.7747V28.4186C42.9955 28.5162 42.9567 28.6097 42.8877 28.6787C42.8187 28.7477 42.7252 28.7864 42.6276 28.7864H32.4181C32.3206 28.7864 32.227 28.7477 32.158 28.6787C32.089 28.6097 32.0503 28.5162 32.0503 28.4186V27.7747C32.0503 27.6771 32.089 27.5836 32.158 27.5146C32.227 27.4456 32.3206 27.4069 32.4181 27.4069Z" fill="#E6E6E6"/>
<path d="M32.4181 29.3383H35.9288C35.9771 29.3382 36.0249 29.3477 36.0696 29.3662C36.1142 29.3847 36.1548 29.4118 36.189 29.4459C36.2232 29.4801 36.2503 29.5206 36.2688 29.5653C36.2873 29.6099 36.2968 29.6578 36.2968 29.7061V30.35C36.2968 30.3983 36.2873 30.4462 36.2688 30.4908C36.2503 30.5355 36.2232 30.576 36.189 30.6102C36.1548 30.6443 36.1142 30.6714 36.0696 30.6899C36.0249 30.7084 35.9771 30.7179 35.9288 30.7178H32.4181C32.3206 30.7178 32.227 30.6791 32.158 30.6101C32.089 30.5411 32.0503 30.4476 32.0503 30.35V29.7061C32.0503 29.6085 32.089 29.515 32.158 29.446C32.227 29.377 32.3206 29.3383 32.4181 29.3383Z" fill="#E6E6E6"/>
<path d="M32.4181 31.2695H42.6269C42.6752 31.2694 42.7231 31.2789 42.7679 31.2973C42.8126 31.3158 42.8532 31.3428 42.8875 31.377C42.9217 31.4112 42.9488 31.4517 42.9674 31.4964C42.9859 31.5411 42.9955 31.589 42.9955 31.6374V32.2813C42.9955 32.3788 42.9567 32.4724 42.8877 32.5414C42.8187 32.6104 42.7252 32.6491 42.6276 32.6491H32.4181C32.3206 32.6491 32.227 32.6104 32.158 32.5414C32.089 32.4724 32.0503 32.3788 32.0503 32.2813V31.6374C32.0503 31.5398 32.089 31.4462 32.158 31.3773C32.227 31.3083 32.3206 31.2695 32.4181 31.2695Z" fill="#E6E6E6"/>
<path d="M21.4738 34.3046H42.6267C42.7243 34.3046 42.8179 34.3433 42.8868 34.4123C42.9558 34.4813 42.9946 34.5748 42.9946 34.6724V35.3163C42.9946 35.4139 42.9558 35.5074 42.8868 35.5764C42.8179 35.6454 42.7243 35.6842 42.6267 35.6842H21.4738C21.3762 35.6842 21.2827 35.6454 21.2137 35.5764C21.1447 35.5074 21.106 35.4139 21.106 35.3163V34.6724C21.106 34.5748 21.1447 34.4813 21.2137 34.4123C21.2827 34.3433 21.3762 34.3046 21.4738 34.3046Z" fill="#E6E6E6"/>
<path d="M21.4738 36.236H42.6267C42.7243 36.236 42.8179 36.2747 42.8868 36.3437C42.9558 36.4127 42.9946 36.5062 42.9946 36.6038V37.2477C42.9946 37.3453 42.9558 37.4388 42.8868 37.5078C42.8179 37.5768 42.7243 37.6155 42.6267 37.6155H21.4738C21.3762 37.6155 21.2827 37.5768 21.2137 37.5078C21.1447 37.4388 21.106 37.3453 21.106 37.2477V36.6038C21.106 36.5062 21.1447 36.4127 21.2137 36.3437C21.2827 36.2747 21.3762 36.236 21.4738 36.236Z" fill="#E6E6E6"/>
<path d="M21.4738 38.1672H42.6267C42.7243 38.1672 42.8179 38.206 42.8868 38.275C42.9558 38.344 42.9946 38.4375 42.9946 38.5351V39.179C42.9946 39.2765 42.9558 39.3701 42.8868 39.4391C42.8179 39.5081 42.7243 39.5468 42.6267 39.5468H21.4738C21.3762 39.5468 21.2827 39.5081 21.2137 39.4391C21.1447 39.3701 21.106 39.2765 21.106 39.179V38.5351C21.106 38.4375 21.1447 38.344 21.2137 38.275C21.2827 38.206 21.3762 38.1672 21.4738 38.1672Z" fill="#E6E6E6"/>
<path d="M21.4738 40.0986H42.6267C42.7243 40.0986 42.8179 40.1374 42.8868 40.2064C42.9558 40.2753 42.9946 40.3689 42.9946 40.4665V41.1104C42.9946 41.2079 42.9558 41.3015 42.8868 41.3705C42.8179 41.4395 42.7243 41.4782 42.6267 41.4782H21.4738C21.3762 41.4782 21.2827 41.4395 21.2137 41.3705C21.1447 41.3015 21.106 41.2079 21.106 41.1104V40.4665C21.106 40.3689 21.1447 40.2753 21.2137 40.2064C21.2827 40.1374 21.3762 40.0986 21.4738 40.0986Z" fill="#E6E6E6"/>
<path d="M21.4738 42.0302H42.6267C42.7243 42.0302 42.8179 42.0689 42.8868 42.1379C42.9558 42.2069 42.9946 42.3004 42.9946 42.398V43.0419C42.9946 43.1395 42.9558 43.233 42.8868 43.302C42.8179 43.371 42.7243 43.4097 42.6267 43.4097H21.4738C21.3762 43.4097 21.2827 43.371 21.2137 43.302C21.1447 43.233 21.106 43.1395 21.106 43.0419V42.398C21.106 42.3004 21.1447 42.2069 21.2137 42.1379C21.2827 42.0689 21.3762 42.0302 21.4738 42.0302Z" fill="#E6E6E6"/>
<path d="M75.5066 45.4935H52.3127C51.9458 45.4931 51.5941 45.3472 51.3346 45.0878C51.0752 44.8283 50.9293 44.4766 50.929 44.1097V26.7673C50.9293 26.4004 51.0752 26.0487 51.3346 25.7892C51.5941 25.5298 51.9458 25.3839 52.3127 25.3835H75.5066C75.8735 25.3839 76.2252 25.5298 76.4846 25.7892C76.7441 26.0487 76.89 26.4004 76.8903 26.7673V44.1085C76.89 44.4754 76.7441 44.8272 76.4846 45.0866C76.2252 45.3461 75.8735 45.492 75.5066 45.4923V45.4935Z" fill="#CCCCCC"/>
<path d="M52.3119 26.1119C52.1381 26.1122 51.9716 26.1813 51.8487 26.3042C51.7259 26.427 51.6567 26.5936 51.6565 26.7673V44.1089C51.6567 44.2826 51.7259 44.4492 51.8487 44.5721C51.9716 44.6949 52.1381 44.764 52.3119 44.7643H75.5061C75.6798 44.764 75.8464 44.6949 75.9692 44.5721C76.0921 44.4492 76.1612 44.2826 76.1615 44.1089V26.7673C76.1612 26.5936 76.0921 26.427 75.9692 26.3042C75.8464 26.1813 75.6798 26.1122 75.5061 26.1119H52.3119Z" fill="white"/>
<path d="M53.3437 27.4069H62.6326C62.7301 27.4069 62.8237 27.4456 62.8926 27.5146C62.9616 27.5836 63.0004 27.6771 63.0004 27.7747V32.2813C63.0004 32.3788 62.9616 32.4724 62.8926 32.5414C62.8237 32.6103 62.7301 32.6491 62.6326 32.6491H53.3437C53.2461 32.6491 53.1525 32.6103 53.0836 32.5414C53.0146 32.4724 52.9758 32.3788 52.9758 32.2813V27.7747C52.9758 27.6771 53.0146 27.5836 53.0836 27.5146C53.1525 27.4456 53.2461 27.4069 53.3437 27.4069Z" fill="#FFC428"/>
<path d="M64.2882 27.4069H74.497C74.5454 27.4068 74.5933 27.4162 74.638 27.4346C74.6827 27.4531 74.7233 27.4802 74.7576 27.5143C74.7918 27.5485 74.819 27.5891 74.8375 27.6337C74.856 27.6784 74.8656 27.7263 74.8656 27.7747V28.4186C74.8656 28.5162 74.8268 28.6097 74.7578 28.6787C74.6889 28.7477 74.5953 28.7864 74.4977 28.7864H64.2882C64.1907 28.7864 64.0971 28.7477 64.0281 28.6787C63.9592 28.6097 63.9204 28.5162 63.9204 28.4186V27.7747C63.9204 27.6771 63.9592 27.5836 64.0281 27.5146C64.0971 27.4456 64.1907 27.4069 64.2882 27.4069Z" fill="#E6E6E6"/>
<path d="M64.2882 29.3383H67.7989C67.8472 29.3382 67.8951 29.3477 67.9397 29.3662C67.9844 29.3847 68.0249 29.4118 68.0591 29.4459C68.0933 29.4801 68.1204 29.5206 68.1389 29.5653C68.1574 29.6099 68.1669 29.6578 68.1669 29.7061V30.35C68.1669 30.3983 68.1574 30.4462 68.1389 30.4908C68.1204 30.5355 68.0933 30.576 68.0591 30.6102C68.0249 30.6443 67.9844 30.6714 67.9397 30.6899C67.8951 30.7084 67.8472 30.7179 67.7989 30.7178H64.2882C64.1907 30.7178 64.0971 30.6791 64.0281 30.6101C63.9592 30.5411 63.9204 30.4476 63.9204 30.35V29.7061C63.9204 29.6085 63.9592 29.515 64.0281 29.446C64.0971 29.377 64.1907 29.3383 64.2882 29.3383Z" fill="#E6E6E6"/>
<path d="M64.2882 31.2695H74.497C74.5454 31.2694 74.5933 31.2789 74.638 31.2973C74.6827 31.3158 74.7233 31.3428 74.7576 31.377C74.7918 31.4112 74.819 31.4517 74.8375 31.4964C74.856 31.5411 74.8656 31.589 74.8656 31.6374V32.2813C74.8656 32.3788 74.8268 32.4724 74.7578 32.5414C74.6889 32.6104 74.5953 32.6491 74.4977 32.6491H64.2882C64.1907 32.6491 64.0971 32.6104 64.0281 32.5414C63.9592 32.4724 63.9204 32.3788 63.9204 32.2813V31.6374C63.9204 31.5398 63.9592 31.4462 64.0281 31.3773C64.0971 31.3083 64.1907 31.2695 64.2882 31.2695Z" fill="#E6E6E6"/>
<path d="M53.3437 34.3046H74.4966C74.5942 34.3046 74.6877 34.3433 74.7567 34.4123C74.8257 34.4813 74.8644 34.5748 74.8644 34.6724V35.3163C74.8644 35.4139 74.8257 35.5074 74.7567 35.5764C74.6877 35.6454 74.5942 35.6842 74.4966 35.6842H53.3437C53.2461 35.6842 53.1525 35.6454 53.0836 35.5764C53.0146 35.5074 52.9758 35.4139 52.9758 35.3163V34.6724C52.9758 34.5748 53.0146 34.4813 53.0836 34.4123C53.1525 34.3433 53.2461 34.3046 53.3437 34.3046Z" fill="#E6E6E6"/>
<path d="M53.3437 36.236H74.4966C74.5942 36.236 74.6877 36.2747 74.7567 36.3437C74.8257 36.4127 74.8644 36.5062 74.8644 36.6038V37.2477C74.8644 37.3453 74.8257 37.4388 74.7567 37.5078C74.6877 37.5768 74.5942 37.6155 74.4966 37.6155H53.3437C53.2461 37.6155 53.1525 37.5768 53.0836 37.5078C53.0146 37.4388 52.9758 37.3453 52.9758 37.2477V36.6038C52.9758 36.5062 53.0146 36.4127 53.0836 36.3437C53.1525 36.2747 53.2461 36.236 53.3437 36.236Z" fill="#E6E6E6"/>
<path d="M53.3437 38.1672H74.4966C74.5942 38.1672 74.6877 38.206 74.7567 38.275C74.8257 38.344 74.8644 38.4375 74.8644 38.5351V39.179C74.8644 39.2765 74.8257 39.3701 74.7567 39.4391C74.6877 39.5081 74.5942 39.5468 74.4966 39.5468H53.3437C53.2461 39.5468 53.1525 39.5081 53.0836 39.4391C53.0146 39.3701 52.9758 39.2765 52.9758 39.179V38.5351C52.9758 38.4375 53.0146 38.344 53.0836 38.275C53.1525 38.206 53.2461 38.1672 53.3437 38.1672Z" fill="#E6E6E6"/>
<path d="M53.3437 40.0986H74.4966C74.5942 40.0986 74.6877 40.1374 74.7567 40.2064C74.8257 40.2753 74.8644 40.3689 74.8644 40.4665V41.1104C74.8644 41.2079 74.8257 41.3015 74.7567 41.3705C74.6877 41.4395 74.5942 41.4782 74.4966 41.4782H53.3437C53.2461 41.4782 53.1525 41.4395 53.0836 41.3705C53.0146 41.3015 52.9758 41.2079 52.9758 41.1104V40.4665C52.9758 40.3689 53.0146 40.2753 53.0836 40.2064C53.1525 40.1374 53.2461 40.0986 53.3437 40.0986Z" fill="#E6E6E6"/>
<path d="M53.3437 42.0302H74.4966C74.5942 42.0302 74.6877 42.0689 74.7567 42.1379C74.8257 42.2069 74.8644 42.3004 74.8644 42.398V43.0419C74.8644 43.1395 74.8257 43.233 74.7567 43.302C74.6877 43.371 74.5942 43.4097 74.4966 43.4097H53.3437C53.2461 43.4097 53.1525 43.371 53.0836 43.302C53.0146 43.233 52.9758 43.1395 52.9758 43.0419V42.398C52.9758 42.3004 53.0146 42.2069 53.0836 42.1379C53.1525 42.0689 53.2461 42.0302 53.3437 42.0302Z" fill="#E6E6E6"/>
<path d="M107.376 45.4935H84.1826C83.8157 45.4931 83.4639 45.3472 83.2045 45.0878C82.9451 44.8283 82.7992 44.4766 82.7988 44.1097V26.7673C82.7992 26.4004 82.9451 26.0487 83.2045 25.7892C83.4639 25.5298 83.8157 25.3839 84.1826 25.3835H107.376C107.743 25.3839 108.095 25.5298 108.355 25.7892C108.614 26.0487 108.76 26.4004 108.76 26.7673V44.1085C108.76 44.4754 108.614 44.8272 108.355 45.0866C108.095 45.3461 107.743 45.492 107.376 45.4923V45.4935Z" fill="#CCCCCC"/>
<path d="M84.1817 26.1119C84.008 26.1122 83.8414 26.1813 83.7186 26.3042C83.5957 26.427 83.5266 26.5936 83.5264 26.7673V44.1089C83.5266 44.2826 83.5957 44.4492 83.7186 44.5721C83.8414 44.6949 84.008 44.764 84.1817 44.7643H107.376C107.55 44.764 107.716 44.6949 107.839 44.5721C107.962 44.4492 108.031 44.2826 108.031 44.1089V26.7673C108.031 26.5936 107.962 26.427 107.839 26.3042C107.716 26.1813 107.55 26.1122 107.376 26.1119H84.1817Z" fill="white"/>
<path d="M85.2138 27.4069H94.5027C94.6002 27.4069 94.6938 27.4456 94.7628 27.5146C94.8317 27.5836 94.8705 27.6771 94.8705 27.7747V32.2813C94.8705 32.3788 94.8317 32.4724 94.7628 32.5414C94.6938 32.6103 94.6002 32.6491 94.5027 32.6491H85.2138C85.1162 32.6491 85.0227 32.6103 84.9537 32.5414C84.8847 32.4724 84.8459 32.3788 84.8459 32.2813V27.7747C84.8459 27.6771 84.8847 27.5836 84.9537 27.5146C85.0227 27.4456 85.1162 27.4069 85.2138 27.4069Z" fill="#FFC428"/>
<path d="M96.1581 27.4069H106.367C106.415 27.4068 106.463 27.4162 106.508 27.4346C106.553 27.4531 106.593 27.4802 106.627 27.5143C106.662 27.5485 106.689 27.5891 106.707 27.6337C106.726 27.6784 106.735 27.7263 106.735 27.7747V28.4186C106.735 28.5162 106.697 28.6097 106.628 28.6787C106.559 28.7477 106.465 28.7864 106.368 28.7864H96.1581C96.0606 28.7864 95.967 28.7477 95.898 28.6787C95.829 28.6097 95.7903 28.5162 95.7903 28.4186V27.7747C95.7903 27.6771 95.829 27.5836 95.898 27.5146C95.967 27.4456 96.0606 27.4069 96.1581 27.4069Z" fill="#E6E6E6"/>
<path d="M96.1581 29.3383H99.6688C99.7171 29.3382 99.7649 29.3477 99.8096 29.3662C99.8542 29.3847 99.8948 29.4118 99.929 29.4459C99.9632 29.4801 99.9903 29.5206 100.009 29.5653C100.027 29.6099 100.037 29.6578 100.037 29.7061V30.35C100.037 30.3983 100.027 30.4462 100.009 30.4908C99.9903 30.5355 99.9632 30.576 99.929 30.6102C99.8948 30.6443 99.8542 30.6714 99.8096 30.6899C99.7649 30.7084 99.7171 30.7179 99.6688 30.7178H96.1581C96.0606 30.7178 95.967 30.6791 95.898 30.6101C95.829 30.5411 95.7903 30.4476 95.7903 30.35V29.7061C95.7903 29.6085 95.829 29.515 95.898 29.446C95.967 29.377 96.0606 29.3383 96.1581 29.3383Z" fill="#E6E6E6"/>
<path d="M96.1581 31.2695H106.367C106.415 31.2694 106.463 31.2789 106.508 31.2973C106.553 31.3158 106.593 31.3428 106.627 31.377C106.662 31.4112 106.689 31.4517 106.707 31.4964C106.726 31.5411 106.735 31.589 106.735 31.6374V32.2813C106.735 32.3788 106.697 32.4724 106.628 32.5414C106.559 32.6104 106.465 32.6491 106.368 32.6491H96.1581C96.0606 32.6491 95.967 32.6104 95.898 32.5414C95.829 32.4724 95.7903 32.3788 95.7903 32.2813V31.6374C95.7903 31.5398 95.829 31.4462 95.898 31.3773C95.967 31.3083 96.0606 31.2695 96.1581 31.2695Z" fill="#E6E6E6"/>
<path d="M85.2138 34.3046H106.367C106.464 34.3046 106.558 34.3433 106.627 34.4123C106.696 34.4813 106.735 34.5748 106.735 34.6724V35.3163C106.735 35.4139 106.696 35.5074 106.627 35.5764C106.558 35.6454 106.464 35.6842 106.367 35.6842H85.2138C85.1162 35.6842 85.0227 35.6454 84.9537 35.5764C84.8847 35.5074 84.8459 35.4139 84.8459 35.3163V34.6724C84.8459 34.5748 84.8847 34.4813 84.9537 34.4123C85.0227 34.3433 85.1162 34.3046 85.2138 34.3046Z" fill="#E6E6E6"/>
<path d="M85.2138 36.236H106.367C106.464 36.236 106.558 36.2747 106.627 36.3437C106.696 36.4127 106.735 36.5062 106.735 36.6038V37.2477C106.735 37.3453 106.696 37.4388 106.627 37.5078C106.558 37.5768 106.464 37.6155 106.367 37.6155H85.2138C85.1162 37.6155 85.0227 37.5768 84.9537 37.5078C84.8847 37.4388 84.8459 37.3453 84.8459 37.2477V36.6038C84.8459 36.5062 84.8847 36.4127 84.9537 36.3437C85.0227 36.2747 85.1162 36.236 85.2138 36.236Z" fill="#E6E6E6"/>
<path d="M85.2138 38.1672H106.367C106.464 38.1672 106.558 38.206 106.627 38.275C106.696 38.344 106.735 38.4375 106.735 38.5351V39.179C106.735 39.2765 106.696 39.3701 106.627 39.4391C106.558 39.5081 106.464 39.5468 106.367 39.5468H85.2138C85.1162 39.5468 85.0227 39.5081 84.9537 39.4391C84.8847 39.3701 84.8459 39.2765 84.8459 39.179V38.5351C84.8459 38.4375 84.8847 38.344 84.9537 38.275C85.0227 38.206 85.1162 38.1672 85.2138 38.1672Z" fill="#E6E6E6"/>
<path d="M85.2138 40.0986H106.367C106.464 40.0986 106.558 40.1374 106.627 40.2064C106.696 40.2753 106.735 40.3689 106.735 40.4665V41.1104C106.735 41.2079 106.696 41.3015 106.627 41.3705C106.558 41.4395 106.464 41.4782 106.367 41.4782H85.2138C85.1162 41.4782 85.0227 41.4395 84.9537 41.3705C84.8847 41.3015 84.8459 41.2079 84.8459 41.1104V40.4665C84.8459 40.3689 84.8847 40.2753 84.9537 40.2064C85.0227 40.1374 85.1162 40.0986 85.2138 40.0986Z" fill="#E6E6E6"/>
<path d="M85.2138 42.0302H106.367C106.464 42.0302 106.558 42.0689 106.627 42.1379C106.696 42.2069 106.735 42.3004 106.735 42.398V43.0419C106.735 43.1395 106.696 43.233 106.627 43.302C106.558 43.371 106.464 43.4097 106.367 43.4097H85.2138C85.1162 43.4097 85.0227 43.371 84.9537 43.302C84.8847 43.233 84.8459 43.1395 84.8459 43.0419V42.398C84.8459 42.3004 84.8847 42.2069 84.9537 42.1379C85.0227 42.0689 85.1162 42.0302 85.2138 42.0302Z" fill="#E6E6E6"/>
<path d="M107.377 68.9567H84.1829C83.816 68.9564 83.4642 68.8105 83.2048 68.551C82.9453 68.2916 82.7994 67.9398 82.7991 67.5729V50.2306C82.7994 49.8637 82.9453 49.5119 83.2048 49.2525C83.4642 48.9931 83.816 48.8472 84.1829 48.8468H107.377C107.744 48.8472 108.095 48.9931 108.355 49.2525C108.614 49.5119 108.76 49.8637 108.76 50.2306V67.5718C108.76 67.9387 108.614 68.2905 108.355 68.5499C108.095 68.8093 107.744 68.9552 107.377 68.9556V68.9567Z" fill="#CCCCCC"/>
<path d="M43.6364 68.9567H20.4426C20.0757 68.9564 19.724 68.8105 19.4645 68.551C19.2051 68.2916 19.0592 67.9398 19.0588 67.5729V50.2306C19.0592 49.8637 19.2051 49.5119 19.4645 49.2525C19.724 48.9931 20.0757 48.8472 20.4426 48.8468H43.6364C44.0033 48.8472 44.3551 48.9931 44.6145 49.2525C44.874 49.5119 45.0199 49.8637 45.0202 50.2306V67.5718C45.0199 67.9387 44.874 68.2905 44.6145 68.5499C44.3551 68.8093 44.0033 68.9552 43.6364 68.9556V68.9567Z" fill="#CCCCCC"/>
<path d="M20.4417 49.5752C20.268 49.5754 20.1015 49.6446 19.9786 49.7674C19.8558 49.8903 19.7866 50.0568 19.7864 50.2306V67.5722C19.7866 67.7459 19.8558 67.9125 19.9786 68.0353C20.1015 68.1582 20.268 68.2273 20.4417 68.2275H43.636C43.8097 68.2273 43.9763 68.1582 44.0991 68.0353C44.222 67.9125 44.2911 67.7459 44.2913 67.5722V50.2306C44.2911 50.0568 44.222 49.8903 44.0991 49.7674C43.9763 49.6446 43.8097 49.5754 43.636 49.5752H20.4417Z" fill="white"/>
<path d="M21.4738 50.8701H30.7627C30.8602 50.8701 30.9538 50.9089 31.0228 50.9779C31.0918 51.0468 31.1305 51.1404 31.1305 51.2379V55.7445C31.1305 55.8421 31.0918 55.9356 31.0228 56.0046C30.9538 56.0736 30.8602 56.1124 30.7627 56.1124H21.4738C21.3762 56.1124 21.2827 56.0736 21.2137 56.0046C21.1447 55.9356 21.106 55.8421 21.106 55.7445V51.2379C21.106 51.1404 21.1447 51.0468 21.2137 50.9779C21.2827 50.9089 21.3762 50.8701 21.4738 50.8701Z" fill="#FFC428"/>
<path d="M32.4181 50.8701H42.6269C42.6752 50.87 42.7231 50.8795 42.7679 50.8979C42.8126 50.9163 42.8532 50.9434 42.8875 50.9776C42.9217 51.0117 42.9488 51.0523 42.9674 51.097C42.9859 51.1417 42.9955 51.1896 42.9955 51.2379V51.8819C42.9955 51.9794 42.9567 52.073 42.8877 52.142C42.8187 52.211 42.7252 52.2497 42.6276 52.2497H32.4181C32.3206 52.2497 32.227 52.211 32.158 52.142C32.089 52.073 32.0503 51.9794 32.0503 51.8819V51.2379C32.0503 51.1404 32.089 51.0468 32.158 50.9779C32.227 50.9089 32.3206 50.8701 32.4181 50.8701Z" fill="#E6E6E6"/>
<path d="M32.4181 52.8015H35.9288C35.9771 52.8015 36.0249 52.811 36.0696 52.8295C36.1142 52.8479 36.1548 52.875 36.189 52.9092C36.2232 52.9433 36.2503 52.9839 36.2688 53.0285C36.2873 53.0732 36.2968 53.121 36.2968 53.1693V53.8133C36.2968 53.8616 36.2873 53.9094 36.2688 53.9541C36.2503 53.9987 36.2232 54.0393 36.189 54.0734C36.1548 54.1076 36.1142 54.1347 36.0696 54.1532C36.0249 54.1716 35.9771 54.1811 35.9288 54.1811H32.4181C32.3206 54.1811 32.227 54.1423 32.158 54.0734C32.089 54.0044 32.0503 53.9108 32.0503 53.8133V53.1693C32.0503 53.0718 32.089 52.9782 32.158 52.9092C32.227 52.8403 32.3206 52.8015 32.4181 52.8015Z" fill="#E6E6E6"/>
<path d="M32.4181 54.7328H42.6269C42.6752 54.7327 42.7231 54.7421 42.7679 54.7606C42.8126 54.779 42.8532 54.8061 42.8875 54.8403C42.9217 54.8744 42.9488 54.915 42.9674 54.9597C42.9859 55.0044 42.9955 55.0522 42.9955 55.1006V55.7445C42.9955 55.8421 42.9567 55.9357 42.8877 56.0046C42.8187 56.0736 42.7252 56.1124 42.6276 56.1124H32.4181C32.3206 56.1124 32.227 56.0736 32.158 56.0046C32.089 55.9357 32.0503 55.8421 32.0503 55.7445V55.1006C32.0503 55.0031 32.089 54.9095 32.158 54.8405C32.227 54.7715 32.3206 54.7328 32.4181 54.7328Z" fill="#E6E6E6"/>
<path d="M21.4738 57.7678H42.6267C42.7243 57.7678 42.8179 57.8066 42.8868 57.8756C42.9558 57.9445 42.9946 58.0381 42.9946 58.1356V58.7796C42.9946 58.8771 42.9558 58.9707 42.8868 59.0397C42.8179 59.1087 42.7243 59.1474 42.6267 59.1474H21.4738C21.3762 59.1474 21.2827 59.1087 21.2137 59.0397C21.1447 58.9707 21.106 58.8771 21.106 58.7796V58.1356C21.106 58.0381 21.1447 57.9445 21.2137 57.8756C21.2827 57.8066 21.3762 57.7678 21.4738 57.7678Z" fill="#E6E6E6"/>
<path d="M21.4738 59.6993H42.6267C42.7243 59.6993 42.8179 59.7381 42.8868 59.8071C42.9558 59.8761 42.9946 59.9696 42.9946 60.0672V60.7111C42.9946 60.8087 42.9558 60.9022 42.8868 60.9712C42.8179 61.0402 42.7243 61.0789 42.6267 61.0789H21.4738C21.3762 61.0789 21.2827 61.0402 21.2137 60.9712C21.1447 60.9022 21.106 60.8087 21.106 60.7111V60.0672C21.106 59.9696 21.1447 59.8761 21.2137 59.8071C21.2827 59.7381 21.3762 59.6993 21.4738 59.6993Z" fill="#E6E6E6"/>
<path d="M21.4738 61.6305H42.6267C42.7243 61.6305 42.8179 61.6692 42.8868 61.7382C42.9558 61.8072 42.9946 61.9008 42.9946 61.9983V62.6423C42.9946 62.7398 42.9558 62.8334 42.8868 62.9023C42.8179 62.9713 42.7243 63.0101 42.6267 63.0101H21.4738C21.3762 63.0101 21.2827 62.9713 21.2137 62.9023C21.1447 62.8334 21.106 62.7398 21.106 62.6423V61.9983C21.106 61.9008 21.1447 61.8072 21.2137 61.7382C21.2827 61.6692 21.3762 61.6305 21.4738 61.6305Z" fill="#E6E6E6"/>
<path d="M21.4738 63.5619H42.6267C42.7243 63.5619 42.8179 63.6006 42.8868 63.6696C42.9558 63.7386 42.9946 63.8322 42.9946 63.9297V64.5736C42.9946 64.6712 42.9558 64.7648 42.8868 64.8337C42.8179 64.9027 42.7243 64.9415 42.6267 64.9415H21.4738C21.3762 64.9415 21.2827 64.9027 21.2137 64.8337C21.1447 64.7648 21.106 64.6712 21.106 64.5736V63.9297C21.106 63.8322 21.1447 63.7386 21.2137 63.6696C21.2827 63.6006 21.3762 63.5619 21.4738 63.5619Z" fill="#E6E6E6"/>
<path d="M21.4738 65.4934H42.6267C42.7243 65.4934 42.8179 65.5322 42.8868 65.6011C42.9558 65.6701 42.9946 65.7637 42.9946 65.8612V66.5052C42.9946 66.6027 42.9558 66.6963 42.8868 66.7653C42.8179 66.8342 42.7243 66.873 42.6267 66.873H21.4738C21.3762 66.873 21.2827 66.8342 21.2137 66.7653C21.1447 66.6963 21.106 66.6027 21.106 66.5052V65.8612C21.106 65.7637 21.1447 65.6701 21.2137 65.6011C21.2827 65.5322 21.3762 65.4934 21.4738 65.4934Z" fill="#E6E6E6"/>
<path d="M75.5066 68.9567H52.3127C51.9458 68.9564 51.5941 68.8105 51.3346 68.551C51.0752 68.2916 50.9293 67.9398 50.929 67.5729V50.2306C50.9293 49.8637 51.0752 49.5119 51.3346 49.2525C51.5941 48.9931 51.9458 48.8472 52.3127 48.8468H75.5066C75.8735 48.8472 76.2252 48.9931 76.4846 49.2525C76.7441 49.5119 76.89 49.8637 76.8903 50.2306V67.5718C76.89 67.9387 76.7441 68.2905 76.4846 68.5499C76.2252 68.8093 75.8735 68.9552 75.5066 68.9556V68.9567Z" fill="#CCCCCC"/>
<path d="M52.3119 49.5752C52.1381 49.5754 51.9716 49.6446 51.8487 49.7674C51.7259 49.8903 51.6567 50.0568 51.6565 50.2306V67.5722C51.6567 67.7459 51.7259 67.9125 51.8487 68.0353C51.9716 68.1582 52.1381 68.2273 52.3119 68.2275H75.5061C75.6798 68.2273 75.8464 68.1582 75.9692 68.0353C76.0921 67.9125 76.1612 67.7459 76.1615 67.5722V50.2306C76.1612 50.0568 76.0921 49.8903 75.9692 49.7674C75.8464 49.6446 75.6798 49.5754 75.5061 49.5752H52.3119Z" fill="white"/>
<path d="M53.3437 50.8701H62.6326C62.7301 50.8701 62.8237 50.9089 62.8926 50.9779C62.9616 51.0468 63.0004 51.1404 63.0004 51.2379V55.7445C63.0004 55.8421 62.9616 55.9356 62.8926 56.0046C62.8237 56.0736 62.7301 56.1124 62.6326 56.1124H53.3437C53.2461 56.1124 53.1525 56.0736 53.0836 56.0046C53.0146 55.9356 52.9758 55.8421 52.9758 55.7445V51.2379C52.9758 51.1404 53.0146 51.0468 53.0836 50.9779C53.1525 50.9089 53.2461 50.8701 53.3437 50.8701Z" fill="#FFC428"/>
<path d="M64.2882 50.8701H74.497C74.5454 50.87 74.5933 50.8795 74.638 50.8979C74.6827 50.9163 74.7233 50.9434 74.7576 50.9776C74.7918 51.0117 74.819 51.0523 74.8375 51.097C74.856 51.1417 74.8656 51.1896 74.8656 51.2379V51.8819C74.8656 51.9794 74.8268 52.073 74.7578 52.142C74.6889 52.211 74.5953 52.2497 74.4977 52.2497H64.2882C64.1907 52.2497 64.0971 52.211 64.0281 52.142C63.9592 52.073 63.9204 51.9794 63.9204 51.8819V51.2379C63.9204 51.1404 63.9592 51.0468 64.0281 50.9779C64.0971 50.9089 64.1907 50.8701 64.2882 50.8701Z" fill="#E6E6E6"/>
<path d="M64.2882 52.8015H67.7989C67.8472 52.8015 67.8951 52.811 67.9397 52.8295C67.9844 52.8479 68.0249 52.875 68.0591 52.9092C68.0933 52.9433 68.1204 52.9839 68.1389 53.0285C68.1574 53.0732 68.1669 53.121 68.1669 53.1693V53.8133C68.1669 53.8616 68.1574 53.9094 68.1389 53.9541C68.1204 53.9987 68.0933 54.0393 68.0591 54.0734C68.0249 54.1076 67.9844 54.1347 67.9397 54.1532C67.8951 54.1716 67.8472 54.1811 67.7989 54.1811H64.2882C64.1907 54.1811 64.0971 54.1423 64.0281 54.0734C63.9592 54.0044 63.9204 53.9108 63.9204 53.8133V53.1693C63.9204 53.0718 63.9592 52.9782 64.0281 52.9092C64.0971 52.8403 64.1907 52.8015 64.2882 52.8015Z" fill="#E6E6E6"/>
<path d="M64.2882 54.7328H74.497C74.5454 54.7327 74.5933 54.7421 74.638 54.7606C74.6827 54.779 74.7233 54.8061 74.7576 54.8403C74.7918 54.8744 74.819 54.915 74.8375 54.9597C74.856 55.0044 74.8656 55.0522 74.8656 55.1006V55.7445C74.8656 55.8421 74.8268 55.9357 74.7578 56.0046C74.6889 56.0736 74.5953 56.1124 74.4977 56.1124H64.2882C64.1907 56.1124 64.0971 56.0736 64.0281 56.0046C63.9592 55.9357 63.9204 55.8421 63.9204 55.7445V55.1006C63.9204 55.0031 63.9592 54.9095 64.0281 54.8405C64.0971 54.7715 64.1907 54.7328 64.2882 54.7328Z" fill="#E6E6E6"/>
<path d="M53.3437 57.7678H74.4966C74.5942 57.7678 74.6877 57.8066 74.7567 57.8756C74.8257 57.9445 74.8644 58.0381 74.8644 58.1356V58.7796C74.8644 58.8771 74.8257 58.9707 74.7567 59.0397C74.6877 59.1087 74.5942 59.1474 74.4966 59.1474H53.3437C53.2461 59.1474 53.1525 59.1087 53.0836 59.0397C53.0146 58.9707 52.9758 58.8771 52.9758 58.7796V58.1356C52.9758 58.0381 53.0146 57.9445 53.0836 57.8756C53.1525 57.8066 53.2461 57.7678 53.3437 57.7678Z" fill="#E6E6E6"/>
<path d="M53.3437 59.6993H74.4966C74.5942 59.6993 74.6877 59.7381 74.7567 59.8071C74.8257 59.8761 74.8644 59.9696 74.8644 60.0672V60.7111C74.8644 60.8087 74.8257 60.9022 74.7567 60.9712C74.6877 61.0402 74.5942 61.0789 74.4966 61.0789H53.3437C53.2461 61.0789 53.1525 61.0402 53.0836 60.9712C53.0146 60.9022 52.9758 60.8087 52.9758 60.7111V60.0672C52.9758 59.9696 53.0146 59.8761 53.0836 59.8071C53.1525 59.7381 53.2461 59.6993 53.3437 59.6993Z" fill="#E6E6E6"/>
<path d="M53.3437 61.6305H74.4966C74.5942 61.6305 74.6877 61.6692 74.7567 61.7382C74.8257 61.8072 74.8644 61.9008 74.8644 61.9983V62.6423C74.8644 62.7398 74.8257 62.8334 74.7567 62.9023C74.6877 62.9713 74.5942 63.0101 74.4966 63.0101H53.3437C53.2461 63.0101 53.1525 62.9713 53.0836 62.9023C53.0146 62.8334 52.9758 62.7398 52.9758 62.6423V61.9983C52.9758 61.9008 53.0146 61.8072 53.0836 61.7382C53.1525 61.6692 53.2461 61.6305 53.3437 61.6305Z" fill="#E6E6E6"/>
<path d="M53.3437 63.5619H74.4966C74.5942 63.5619 74.6877 63.6006 74.7567 63.6696C74.8257 63.7386 74.8644 63.8322 74.8644 63.9297V64.5736C74.8644 64.6712 74.8257 64.7648 74.7567 64.8337C74.6877 64.9027 74.5942 64.9415 74.4966 64.9415H53.3437C53.2461 64.9415 53.1525 64.9027 53.0836 64.8337C53.0146 64.7648 52.9758 64.6712 52.9758 64.5736V63.9297C52.9758 63.8322 53.0146 63.7386 53.0836 63.6696C53.1525 63.6006 53.2461 63.5619 53.3437 63.5619Z" fill="#E6E6E6"/>
<path d="M53.3437 65.4934H74.4966C74.5942 65.4934 74.6877 65.5322 74.7567 65.6011C74.8257 65.6701 74.8644 65.7637 74.8644 65.8612V66.5052C74.8644 66.6027 74.8257 66.6963 74.7567 66.7653C74.6877 66.8342 74.5942 66.873 74.4966 66.873H53.3437C53.2461 66.873 53.1525 66.8342 53.0836 66.7653C53.0146 66.6963 52.9758 66.6027 52.9758 66.5052V65.8612C52.9758 65.7637 53.0146 65.6701 53.0836 65.6011C53.1525 65.5322 53.2461 65.4934 53.3437 65.4934Z" fill="#E6E6E6"/>
<path d="M139.446 52.3313C139.446 52.3313 134.154 53.0668 133.051 52.8509L130.111 50.0576C130.111 50.0576 127.317 52.1896 131.728 53.5852L139.96 54.5402L139.446 52.3313Z" fill="#ED9DA0"/>
<path d="M134.626 53.5099H114.137C113.813 53.5096 113.502 53.3807 113.273 53.1515C113.044 52.9223 112.915 52.6116 112.914 52.2874V36.9675C112.915 36.6433 113.044 36.3326 113.273 36.1034C113.502 35.8742 113.813 35.7453 114.137 35.745H134.626C134.95 35.7453 135.261 35.8742 135.49 36.1034C135.719 36.3326 135.848 36.6433 135.848 36.9675V52.2865C135.848 52.6106 135.719 52.9214 135.49 53.1506C135.261 53.3798 134.95 53.5087 134.626 53.509V53.5099Z" fill="#CCCCCC"/>
<path d="M114.136 36.3884C113.982 36.3886 113.835 36.4497 113.727 36.5582C113.618 36.6667 113.557 36.8139 113.557 36.9673V52.2868C113.557 52.4402 113.618 52.5874 113.727 52.6959C113.835 52.8044 113.982 52.8655 114.136 52.8657H134.625C134.779 52.8654 134.926 52.8043 135.034 52.6958C135.143 52.5873 135.204 52.4402 135.204 52.2868V36.9673C135.204 36.8139 135.143 36.6668 135.034 36.5583C134.926 36.4498 134.779 36.3887 134.625 36.3884H114.136Z" fill="white"/>
<path d="M115.047 37.5325H123.253C123.296 37.5325 123.338 37.5409 123.377 37.5571C123.417 37.5734 123.453 37.5973 123.483 37.6274C123.513 37.6575 123.537 37.6933 123.553 37.7326C123.569 37.7719 123.578 37.8141 123.578 37.8566V41.8385C123.578 41.881 123.569 41.9232 123.553 41.9625C123.537 42.0018 123.513 42.0376 123.483 42.0677C123.453 42.0978 123.417 42.1217 123.377 42.1379C123.338 42.1542 123.296 42.1626 123.253 42.1626H115.047C114.961 42.1626 114.878 42.1285 114.818 42.0677C114.757 42.0069 114.723 41.9244 114.723 41.8385V37.8566C114.723 37.7707 114.757 37.6882 114.818 37.6274C114.878 37.5666 114.961 37.5325 115.047 37.5325Z" fill="#FFC428"/>
<path d="M124.715 37.5325H133.734C133.777 37.5325 133.819 37.5409 133.858 37.5571C133.897 37.5734 133.933 37.5973 133.963 37.6274C133.993 37.6575 134.017 37.6933 134.034 37.7326C134.05 37.7719 134.058 37.8141 134.058 37.8566V38.4262C134.058 38.4688 134.05 38.5109 134.034 38.5502C134.017 38.5896 133.993 38.6253 133.963 38.6554C133.933 38.6855 133.897 38.7094 133.858 38.7257C133.819 38.742 133.777 38.7504 133.734 38.7504H124.715C124.629 38.7504 124.546 38.7162 124.486 38.6554C124.425 38.5946 124.391 38.5122 124.391 38.4262V37.8566C124.391 37.7707 124.425 37.6882 124.486 37.6274C124.546 37.5666 124.629 37.5325 124.715 37.5325Z" fill="#E6E6E6"/>
<path d="M124.715 39.2385H127.817C127.903 39.2385 127.985 39.2727 128.046 39.3335C128.107 39.3943 128.141 39.4767 128.141 39.5627V40.1323C128.141 40.2182 128.107 40.3007 128.046 40.3615C127.985 40.4223 127.903 40.4564 127.817 40.4564H124.715C124.629 40.4564 124.546 40.4223 124.486 40.3615C124.425 40.3007 124.391 40.2182 124.391 40.1323V39.5627C124.391 39.4767 124.425 39.3943 124.486 39.3335C124.546 39.2727 124.629 39.2385 124.715 39.2385Z" fill="#E6E6E6"/>
<path d="M124.715 40.9447H133.734C133.777 40.9447 133.819 40.9531 133.858 40.9694C133.897 40.9857 133.933 41.0095 133.963 41.0396C133.993 41.0697 134.017 41.1055 134.034 41.1448C134.05 41.1841 134.058 41.2263 134.058 41.2689V41.8384C134.058 41.881 134.05 41.9232 134.034 41.9625C134.017 42.0018 133.993 42.0375 133.963 42.0676C133.933 42.0977 133.897 42.1216 133.858 42.1379C133.819 42.1542 133.777 42.1626 133.734 42.1626H124.715C124.629 42.1626 124.546 42.1284 124.486 42.0676C124.425 42.0069 124.391 41.9244 124.391 41.8384V41.2689C124.391 41.1829 124.425 41.1004 124.486 41.0396C124.546 40.9789 124.629 40.9447 124.715 40.9447Z" fill="#E6E6E6"/>
<path d="M115.047 43.6257H133.734C133.776 43.6257 133.818 43.6341 133.858 43.6504C133.897 43.6667 133.933 43.6906 133.963 43.7207C133.993 43.7508 134.017 43.7865 134.033 43.8258C134.049 43.8652 134.058 43.9073 134.058 43.9499V44.5195C134.058 44.562 134.049 44.6042 134.033 44.6435C134.017 44.6828 133.993 44.7186 133.963 44.7487C133.933 44.7788 133.897 44.8027 133.858 44.8189C133.818 44.8352 133.776 44.8436 133.734 44.8436H115.047C114.961 44.8436 114.878 44.8095 114.818 44.7487C114.757 44.6879 114.723 44.6054 114.723 44.5195V43.9499C114.723 43.8639 114.757 43.7815 114.818 43.7207C114.878 43.6599 114.961 43.6257 115.047 43.6257Z" fill="#E6E6E6"/>
<path d="M115.047 45.3319H133.734C133.776 45.3319 133.818 45.3403 133.858 45.3566C133.897 45.3729 133.933 45.3968 133.963 45.4269C133.993 45.457 134.017 45.4927 134.033 45.532C134.049 45.5713 134.058 45.6135 134.058 45.6561V46.2256C134.058 46.2682 134.049 46.3104 134.033 46.3497C134.017 46.389 133.993 46.4248 133.963 46.4549C133.933 46.485 133.897 46.5088 133.858 46.5251C133.818 46.5414 133.776 46.5498 133.734 46.5498H115.047C114.961 46.5498 114.878 46.5156 114.818 46.4549C114.757 46.3941 114.723 46.3116 114.723 46.2256V45.6561C114.723 45.5701 114.757 45.4876 114.818 45.4269C114.878 45.3661 114.961 45.3319 115.047 45.3319Z" fill="#E6E6E6"/>
<path d="M115.047 47.038H133.734C133.776 47.038 133.818 47.0463 133.858 47.0626C133.897 47.0789 133.933 47.1028 133.963 47.1329C133.993 47.163 134.017 47.1987 134.033 47.2381C134.049 47.2774 134.058 47.3196 134.058 47.3621V47.9317C134.058 47.9743 134.049 48.0164 134.033 48.0557C134.017 48.0951 133.993 48.1308 133.963 48.1609C133.933 48.191 133.897 48.2149 133.858 48.2312C133.818 48.2475 133.776 48.2559 133.734 48.2559H115.047C114.961 48.2559 114.878 48.2217 114.818 48.1609C114.757 48.1001 114.723 48.0177 114.723 47.9317V47.3621C114.723 47.2762 114.757 47.1937 114.818 47.1329C114.878 47.0721 114.961 47.038 115.047 47.038Z" fill="#E6E6E6"/>
<path d="M115.047 48.7443H133.734C133.776 48.7443 133.818 48.7526 133.858 48.7689C133.897 48.7852 133.933 48.8091 133.963 48.8392C133.993 48.8693 134.017 48.905 134.033 48.9444C134.049 48.9837 134.058 49.0259 134.058 49.0684V49.638C134.058 49.6806 134.049 49.7227 134.033 49.762C134.017 49.8014 133.993 49.8371 133.963 49.8672C133.933 49.8973 133.897 49.9212 133.858 49.9375C133.818 49.9538 133.776 49.9622 133.734 49.9622H115.047C114.961 49.9622 114.878 49.928 114.818 49.8672C114.757 49.8064 114.723 49.724 114.723 49.638V49.0684C114.723 48.9824 114.757 48.9 114.818 48.8392C114.878 48.7784 114.961 48.7443 115.047 48.7443Z" fill="#E6E6E6"/>
<path d="M115.047 50.4504H133.734C133.776 50.4504 133.818 50.4588 133.858 50.4751C133.897 50.4914 133.933 50.5153 133.963 50.5454C133.993 50.5755 134.017 50.6112 134.033 50.6505C134.049 50.6899 134.058 50.732 134.058 50.7746V51.3442C134.058 51.3867 134.049 51.4289 134.033 51.4682C134.017 51.5075 133.993 51.5433 133.963 51.5734C133.933 51.6035 133.897 51.6274 133.858 51.6437C133.818 51.6599 133.776 51.6683 133.734 51.6683H115.047C114.961 51.6683 114.878 51.6342 114.818 51.5734C114.757 51.5126 114.723 51.4301 114.723 51.3442V50.7746C114.723 50.6886 114.757 50.6062 114.818 50.5454C114.878 50.4846 114.961 50.4504 115.047 50.4504Z" fill="#E6E6E6"/>
<path d="M141.357 82.1724L138.784 84.4512C138.784 84.4512 137.315 84.8188 136.505 84.7449C135.696 84.6709 135.33 85.9948 137.241 86.1416C139.152 86.2884 145.252 85.848 145.252 85.848C145.252 85.848 145.841 83.4963 144.076 82.1724H141.357Z" fill="#090814"/>
<path opacity="0.3" d="M145.344 84.8293C145.34 85.0972 145.309 85.364 145.252 85.6258C145.252 85.6258 139.146 86.0663 137.241 85.9195C136.322 85.8493 135.931 85.5063 135.861 85.1775C135.778 85.5543 136.11 86.0531 137.241 86.1403C139.152 86.2871 145.252 85.8466 145.252 85.8466C145.323 85.5125 145.354 85.1709 145.344 84.8293Z" fill="white"/>
<path d="M144.37 40.4977C144.37 40.4977 145.987 42.7766 145.4 44.3201C144.812 45.8637 148.483 42.7026 148.483 42.7026C148.483 42.7026 147.307 40.6446 147.894 38.4397L144.37 40.4977Z" fill="#ED9DA0"/>
<path d="M143.935 83.0532L141.362 85.3321C141.362 85.3321 139.893 85.6997 139.084 85.6257C138.274 85.5517 137.908 86.8756 139.819 87.0225C141.73 87.1693 147.83 86.7288 147.83 86.7288C147.83 86.7288 148.419 84.3771 146.654 83.0532H143.935Z" fill="#090814"/>
<path d="M144.665 82.5388C144.48 82.7528 144.252 82.9245 143.995 83.0422C143.738 83.1599 143.458 83.2209 143.176 83.2209C141.891 83.2819 140.476 82.5388 140.476 82.5388C141.431 81.7307 137.169 71.5134 137.981 57.0347L140.039 55.7848L141.662 57.0294L143.2 58.2105C143.3 58.5859 143.365 58.97 143.393 59.3576C143.571 62.0588 141.436 62.6945 141.436 62.6945C141.436 62.6945 142.318 65.4139 141.51 67.9124C140.702 70.4109 142.099 72.6155 142.099 72.6155C142.099 72.6155 144.745 80.259 144.307 80.7005C143.87 81.1419 144.665 82.5388 144.665 82.5388Z" fill="#090814"/>
<path d="M147.237 83.4209C145.987 84.9645 143.049 83.4209 143.049 83.4209C143.108 83.3666 143.153 83.2977 143.178 83.2209C143.718 81.7553 141.36 74.7485 141.36 74.7485C139.376 73.7936 139.151 71.5147 139.151 71.5147L138.631 59.7371L138.564 58.2116L141.656 57.0305L145.767 59.0937C145.904 59.5945 145.972 60.1116 145.969 60.6308C145.929 63.0046 144.002 63.5774 144.002 63.5774L147.237 83.4209Z" fill="#090814"/>
<path opacity="0.1" d="M145.969 60.6296C145.334 60.5387 144.048 59.7735 143.386 59.3576L142.973 59.0977C142.973 59.0977 142.312 57.2605 140.547 58.6572C139.974 59.1231 139.326 59.4894 138.631 59.7409C138.365 59.8349 138.091 59.9036 137.812 59.9462L137.975 57.0398L140.033 55.7899L141.656 57.0345L142.605 56.6722L145.767 59.0979C145.903 59.597 145.971 60.1122 145.969 60.6296Z" fill="black"/>
<path d="M149.947 46.5302C149.687 48.1076 149.124 51.3492 148.486 54.1684C147.604 58.0661 146.649 57.1812 146.207 58.1376C145.765 59.0941 146.133 60.4165 146.133 60.4165C145.397 60.4905 142.972 58.8729 142.972 58.8729C142.972 58.8729 142.311 57.0357 140.546 58.4324C138.782 59.8292 137.385 59.755 137.385 59.755C137.017 57.3293 139.737 50.8618 139.737 50.8618C139.737 50.8618 142.383 45.8636 142.97 45.2023C143.243 44.8783 143.437 44.496 143.538 44.0849C143.583 43.9211 143.615 43.7538 143.632 43.5848C144.587 43.5108 146.94 41.8957 146.94 41.8957L148.777 41.6021V42.557C148.798 42.5666 148.818 42.5788 148.837 42.5934C149.139 42.8247 149.52 43.8056 149.784 44.5786C149.998 45.2057 150.054 45.876 149.948 46.53L149.947 46.5302Z" fill="#E6E6E6"/>
<path opacity="0.1" d="M140.407 53.3239C140.437 52.7795 140.232 51.8219 140.114 51.3257C140.56 51.2672 140.842 51.2283 140.842 51.2283L141.362 53.4369L140.407 53.3239Z" fill="black"/>
<path d="M145.4 41.233C147.105 41.233 148.487 39.8509 148.487 38.146C148.487 36.4412 147.105 35.0591 145.4 35.0591C143.695 35.0591 142.313 36.4412 142.313 38.146C142.313 39.8509 143.695 41.233 145.4 41.233Z" fill="#ED9DA0"/>
<path d="M141.495 35.575C141.806 35.2555 142.211 35.0431 142.651 34.9682C143.08 34.8759 143.55 34.8473 143.893 34.5785C144.283 34.268 144.454 33.6781 144.932 33.5469C145.14 33.5051 145.356 33.5222 145.555 33.5963C146.319 33.8268 146.997 34.279 147.504 34.8956C147.623 35.0723 147.775 35.2245 147.952 35.3439C148.058 35.3886 148.161 35.4389 148.261 35.4945C148.371 35.5814 148.458 35.6944 148.513 35.8232C148.858 36.5191 148.937 37.3168 148.737 38.067C148.617 38.5099 148.402 38.9207 148.274 39.3663C148.147 39.8119 148.114 40.3069 148.348 40.7011C148.229 40.7439 148.098 40.7433 147.979 40.6993C147.861 40.6554 147.761 40.5708 147.698 40.4606C147.58 40.2359 147.492 39.9959 147.439 39.7473C147.292 39.2694 147.016 38.8411 146.642 38.5092C146.411 38.3038 145.992 38.166 145.835 38.4312C145.773 38.5338 145.777 38.6638 145.724 38.7702C145.659 38.8675 145.559 38.9356 145.445 38.9599C145.331 38.9842 145.212 38.9627 145.113 38.9001C144.919 38.766 144.783 38.5637 144.732 38.3336C144.429 37.3098 143.913 36.6653 142.818 37.1031C142.41 37.2669 141.93 37.3773 141.537 37.0966C141.024 36.7261 141.124 35.9947 141.495 35.575Z" fill="#090814"/>
<path opacity="0.3" d="M147.917 85.7114C147.912 85.9793 147.881 86.2461 147.824 86.5079C147.824 86.5079 141.718 86.9484 139.813 86.8016C138.895 86.7314 138.504 86.3883 138.433 86.0596C138.35 86.4364 138.683 86.9352 139.813 87.0224C141.724 87.1692 147.824 86.7287 147.824 86.7287C147.896 86.3946 147.927 86.053 147.917 85.7114Z" fill="white"/>
<path d="M141.357 53.4342L140.408 53.3238L133.132 52.4779C128.722 51.0812 132.188 50.233 132.188 50.233L134.455 51.7438C135.303 51.9141 138.629 51.5177 140.12 51.3268C140.567 51.2682 140.849 51.2293 140.849 51.2293L141.357 53.4342Z" fill="#ED9DA0"/>
<path d="M148.482 43.3653C148.482 43.3653 146.571 41.8217 143.705 46.8201C140.838 51.8184 140.177 51.0088 140.177 51.0088C140.177 51.0088 140.766 53.2175 140.471 53.6553C140.471 53.6553 142.454 53.5084 143.19 53.6553C143.926 53.8021 148.482 48.0683 148.482 48.0683C148.482 48.0683 150.839 44.8347 148.482 43.3653Z" fill="#E6E6E6"/>
</g>
<defs>
<clipPath id="clip0_132_1779">
<rect width="150" height="74.0524" fill="white" transform="translate(0 13)"/>
</clipPath>
</defs>
</svg>
