<svg width="150" height="84" viewBox="0 0 150 84" fill="none" xmlns="http://www.w3.org/2000/svg">
<g clip-path="url(#clip0_132_1435)">
<path d="M39.329 26.0634C44.0735 26.0634 47.9197 22.2172 47.9197 17.4727C47.9197 12.7282 44.0735 8.88196 39.329 8.88196C34.5845 8.88196 30.7383 12.7282 30.7383 17.4727C30.7383 22.2172 34.5845 26.0634 39.329 26.0634Z" fill="#FF6584"/>
<path d="M66.2685 43.9462H24.125C24.0722 43.9469 24.0195 43.9427 23.9675 43.9337L43.8995 9.40869C44.0211 9.19368 44.1977 9.01481 44.4111 8.89035C44.6245 8.7659 44.8671 8.70032 45.1141 8.70032C45.3612 8.70032 45.6038 8.7659 45.8172 8.89035C46.0306 9.01481 46.2071 9.19368 46.3288 9.40869L59.7056 32.5777L60.3465 33.6863L66.2685 43.9462Z" fill="#3F3D56"/>
<path opacity="0.2" d="M66.2688 43.9462H51.8799L58.9433 33.6862L59.4517 32.9472L59.7059 32.5778L60.3468 33.6862L66.2688 43.9462Z" fill="black"/>
<path d="M89.7339 43.9462H53.2832L60.3466 33.6863L60.8549 32.9472L70.0592 19.5766C70.6627 18.7003 72.1143 18.6457 72.8238 19.4113C72.8714 19.4635 72.9157 19.5187 72.9563 19.5766L89.7339 43.9462Z" fill="#3F3D56"/>
<path d="M100.434 38.2663C101.863 38.2663 103.022 37.1073 103.022 35.6777C103.022 34.248 101.863 33.089 100.434 33.089C99.004 33.089 97.845 34.248 97.845 35.6777C97.845 37.1073 99.004 38.2663 100.434 38.2663Z" fill="#FFC428"/>
<path d="M100.683 43.475H100.153L100.395 35.2878L100.683 43.475Z" fill="#3F3D56"/>
<path d="M100.441 36.8395L101.011 36.0519L100.434 37.0344L100.371 36.9253L100.441 36.8395Z" fill="#3F3D56"/>
<path d="M100.379 37.6347L99.8096 36.8473L100.387 37.8297L100.449 37.7205L100.379 37.6347Z" fill="#3F3D56"/>
<path d="M124.18 38.2663C125.61 38.2663 126.769 37.1073 126.769 35.6777C126.769 34.248 125.61 33.089 124.18 33.089C122.75 33.089 121.591 34.248 121.591 35.6777C121.591 37.1073 122.75 38.2663 124.18 38.2663Z" fill="#FFC428"/>
<path d="M124.429 43.475H123.899L124.141 35.2878L124.429 43.475Z" fill="#3F3D56"/>
<path d="M124.188 36.8395L124.757 36.0519L124.18 37.0344L124.117 36.9253L124.188 36.8395Z" fill="#3F3D56"/>
<path d="M124.125 37.6347L123.556 36.8473L124.133 37.8297L124.196 37.7205L124.125 37.6347Z" fill="#3F3D56"/>
<path d="M107.933 35.7824C110.044 35.7824 111.756 34.0706 111.756 31.9591C111.756 29.8476 110.044 28.1359 107.933 28.1359C105.821 28.1359 104.109 29.8476 104.109 31.9591C104.109 34.0706 105.821 35.7824 107.933 35.7824Z" fill="#FFC428"/>
<path d="M108.301 43.475H107.518L107.875 31.3833L108.301 43.475Z" fill="#3F3D56"/>
<path d="M107.944 33.6748L108.785 32.5118L107.933 33.9628L107.84 33.8016L107.944 33.6748Z" fill="#3F3D56"/>
<path d="M107.852 34.8495L107.011 33.6865L107.864 35.1374L107.956 34.9762L107.852 34.8495Z" fill="#3F3D56"/>
<path d="M117.256 35.7824C119.368 35.7824 121.079 34.0706 121.079 31.9591C121.079 29.8476 119.368 28.1359 117.256 28.1359C115.145 28.1359 113.433 29.8476 113.433 31.9591C113.433 34.0706 115.145 35.7824 117.256 35.7824Z" fill="#FFC428"/>
<path d="M117.625 43.475H116.842L117.199 31.3833L117.625 43.475Z" fill="#3F3D56"/>
<path d="M117.268 33.6748L118.108 32.5118L117.256 33.9628L117.164 33.8016L117.268 33.6748Z" fill="#3F3D56"/>
<path d="M117.176 34.8495L116.335 33.6865L117.187 35.1374L117.279 34.9762L117.176 34.8495Z" fill="#3F3D56"/>
<path d="M93.0728 35.7824C95.1843 35.7824 96.896 34.0706 96.896 31.9591C96.896 29.8476 95.1843 28.1359 93.0728 28.1359C90.9612 28.1359 89.2495 29.8476 89.2495 31.9591C89.2495 34.0706 90.9612 35.7824 93.0728 35.7824Z" fill="#FFC428"/>
<path d="M93.4412 43.475H92.6582L93.0153 31.3833L93.4412 43.475Z" fill="#3F3D56"/>
<path d="M93.0845 33.6748L93.9251 32.5118L93.073 33.9628L92.981 33.8016L93.0845 33.6748Z" fill="#3F3D56"/>
<path d="M92.9924 34.8495L92.1516 33.6865L93.0039 35.1374L93.0959 34.9762L92.9924 34.8495Z" fill="#3F3D56"/>
<path d="M138.306 83.2003H13.536C11.964 83.2003 10.4074 82.8907 8.95504 82.2892C7.50271 81.6876 6.18309 80.8058 5.07152 79.6943C3.95995 78.5827 3.07821 77.2631 2.47663 75.8107C1.87506 74.3584 1.56543 72.8018 1.56543 71.2298C1.56543 69.6578 1.87506 68.1012 2.47663 66.6489C3.07821 65.1966 3.95995 63.8769 5.07152 62.7654C6.18309 61.6538 7.50271 60.7721 8.95504 60.1705C10.4074 59.5689 11.964 59.2593 13.536 59.2593H138.03C139.251 59.2593 140.422 58.7742 141.285 57.9108C142.149 57.0474 142.634 55.8763 142.634 54.6552C142.634 53.4342 142.149 52.2631 141.285 51.3997C140.422 50.5362 139.251 50.0512 138.03 50.0512H9.39232V42.6847H138.03C141.204 42.6847 144.249 43.9459 146.494 46.1908C148.739 48.4357 150 51.4804 150 54.6552C150 57.83 148.739 60.8748 146.494 63.1197C144.249 65.3646 141.204 66.6258 138.03 66.6258H13.536C12.3149 66.6258 11.1438 67.1108 10.2804 67.9743C9.41698 68.8377 8.93192 70.0087 8.93192 71.2298C8.93192 72.4509 9.41698 73.622 10.2804 74.4854C11.1438 75.3488 12.3149 75.8339 13.536 75.8339H138.306V83.2003Z" fill="#E6E6E6"/>
<path d="M19.7051 46.1837H13.9961V46.552H19.7051V46.1837Z" fill="white"/>
<path d="M35.9117 46.1837H30.2026V46.552H35.9117V46.1837Z" fill="white"/>
<path d="M52.1177 46.1837H46.4087V46.552H52.1177V46.1837Z" fill="white"/>
<path d="M68.3243 46.1837H62.6152V46.552H68.3243V46.1837Z" fill="white"/>
<path d="M84.5303 46.1837H78.8213V46.552H84.5303V46.1837Z" fill="white"/>
<path d="M100.737 46.1837H95.0276V46.552H100.737V46.1837Z" fill="white"/>
<path d="M116.943 46.1837H111.234V46.552H116.943V46.1837Z" fill="white"/>
<path d="M133.149 46.1837H127.44V46.552H133.149V46.1837Z" fill="white"/>
<path d="M19.7051 62.7583H13.9961V63.1266H19.7051V62.7583Z" fill="white"/>
<path d="M35.9117 62.7583H30.2026V63.1266H35.9117V62.7583Z" fill="white"/>
<path d="M52.1177 62.7583H46.4087V63.1266H52.1177V62.7583Z" fill="white"/>
<path d="M68.3243 62.7583H62.6152V63.1266H68.3243V62.7583Z" fill="white"/>
<path d="M84.5303 62.7583H78.8213V63.1266H84.5303V62.7583Z" fill="white"/>
<path d="M100.737 62.7583H95.0276V63.1266H100.737V62.7583Z" fill="white"/>
<path d="M116.943 62.7583H111.234V63.1266H116.943V62.7583Z" fill="white"/>
<path d="M133.149 62.7583H127.44V63.1266H133.149V62.7583Z" fill="white"/>
<path d="M19.7051 79.3329H13.9961V79.7012H19.7051V79.3329Z" fill="white"/>
<path d="M35.9117 79.3329H30.2026V79.7012H35.9117V79.3329Z" fill="white"/>
<path d="M52.1177 79.3329H46.4087V79.7012H52.1177V79.3329Z" fill="white"/>
<path d="M68.3243 79.3329H62.6152V79.7012H68.3243V79.3329Z" fill="white"/>
<path d="M84.5303 79.3329H78.8213V79.7012H84.5303V79.3329Z" fill="white"/>
<path d="M100.737 79.3329H95.0276V79.7012H100.737V79.3329Z" fill="white"/>
<path d="M116.943 79.3329H111.234V79.7012H116.943V79.3329Z" fill="white"/>
<path d="M133.149 79.3329H127.44V79.7012H133.149V79.3329Z" fill="white"/>
<path d="M100.164 14.6174C100.763 14.6169 101.353 14.7693 101.878 15.0604H98.4539C98.9767 14.7694 99.5653 14.6169 100.164 14.6174Z" fill="#E6E6E6"/>
<path d="M93.5194 14.1744C94.5213 14.1733 95.4989 14.4828 96.3175 15.0603H90.7251C91.5427 14.4835 92.5188 14.174 93.5194 14.1744Z" fill="#E6E6E6"/>
<path d="M55.8828 8.56707C56.0043 6.41853 56.885 4.38297 58.3677 2.82332C59.8504 1.26367 61.8389 0.281308 63.9786 0.0513842C66.1182 -0.17854 68.27 0.358916 70.0502 1.56793C71.8305 2.77695 73.1235 4.57893 73.6987 6.6526C73.8087 6.64866 73.9186 6.64424 74.0296 6.64424C75.9914 6.6446 77.9004 7.28014 79.4709 8.45579C81.0414 9.63143 82.189 11.284 82.7421 13.1662C84.0421 12.595 85.4948 12.4711 86.8727 12.8138C88.2506 13.1566 89.476 13.9466 90.3568 15.0603H62.0319C61.2056 15.0626 60.3873 14.8982 59.626 14.5769C58.8647 14.2555 58.1761 13.7838 57.6014 13.1901C57.0267 12.5963 56.5777 11.8927 56.2813 11.1214C55.9849 10.35 55.8472 9.52682 55.8764 8.701C55.8782 8.65642 55.8804 8.61178 55.8828 8.56707Z" fill="#E6E6E6"/>
<path d="M102.231 21.2472C101.631 21.2466 101.041 21.3991 100.516 21.6901H103.94C103.417 21.3992 102.829 21.2467 102.231 21.2472Z" fill="#E6E6E6"/>
<path d="M108.875 20.8043C107.873 20.8032 106.895 21.1127 106.077 21.6902H111.669C110.852 21.1133 109.875 20.8039 108.875 20.8043Z" fill="#E6E6E6"/>
<path d="M146.511 15.197C146.39 13.0484 145.509 11.0129 144.026 9.4532C142.544 7.89355 140.555 6.91119 138.416 6.68127C136.276 6.45134 134.124 6.9888 132.344 8.19781C130.564 9.40683 129.271 11.2088 128.695 13.2825C128.585 13.2785 128.476 13.2741 128.365 13.2741C126.403 13.2745 124.494 13.91 122.923 15.0857C121.353 16.2613 120.205 17.9139 119.652 19.7961C118.352 19.2249 116.899 19.101 115.521 19.4437C114.144 19.7865 112.918 20.5765 112.037 21.6902H140.362C141.189 21.6925 142.007 21.5281 142.768 21.2067C143.529 20.8854 144.218 20.4137 144.793 19.82C145.368 19.2262 145.817 18.5226 146.113 17.7513C146.409 16.9799 146.547 16.1567 146.518 15.3309C146.516 15.2863 146.514 15.2417 146.511 15.197Z" fill="#E6E6E6"/>
<path d="M127.627 78.0524L130.919 78.0542L130.92 77.5317L127.628 77.5299L127.627 78.0524Z" fill="#3F3D56"/>
<path d="M103.826 77.6478L104.505 77.8049L130.319 77.8187L130.551 77.2779C130.956 76.3502 131.095 75.3283 130.952 74.3262C130.841 73.5792 130.562 72.8371 129.93 72.5147L128.784 64.8849L114.503 64.8594L108.977 69.316C108.977 69.316 106.371 69.2691 104.955 71.0319C104.444 71.6874 104.142 72.4815 104.089 73.3108L104.033 74.2279L103.826 77.6478Z" fill="#FFC428"/>
<path d="M109.495 80.7077C111.256 80.7077 112.683 79.2806 112.683 77.5202C112.683 75.7597 111.256 74.3326 109.495 74.3326C107.735 74.3326 106.308 75.7597 106.308 77.5202C106.308 79.2806 107.735 80.7077 109.495 80.7077Z" fill="#3F3D56"/>
<path d="M109.496 79.1978C110.422 79.1978 111.173 78.4467 111.173 77.5202C111.173 76.5936 110.422 75.8425 109.496 75.8425C108.569 75.8425 107.818 76.5936 107.818 77.5202C107.818 78.4467 108.569 79.1978 109.496 79.1978Z" fill="#CCCCCC"/>
<path d="M125.224 80.7161C126.985 80.7161 128.412 79.289 128.412 77.5286C128.412 75.7682 126.985 74.3411 125.224 74.3411C123.464 74.3411 122.037 75.7682 122.037 77.5286C122.037 79.289 123.464 80.7161 125.224 80.7161Z" fill="#3F3D56"/>
<path d="M125.224 79.2062C126.151 79.2062 126.902 78.4551 126.902 77.5286C126.902 76.6021 126.151 75.851 125.224 75.851C124.297 75.851 123.546 76.6021 123.546 77.5286C123.546 78.4551 124.297 79.2062 125.224 79.2062Z" fill="#CCCCCC"/>
<path d="M111.173 68.7951L118.883 68.7983H119.825L121.414 68.7995V68.6835L121.415 67.286L121.416 65.7169H120.359L119.417 65.7159L117.75 65.7147H116.809L114.884 65.7135L111.173 68.7951Z" fill="white"/>
<path d="M122.668 68.8007L126.744 68.8029L126.745 68.0033V66.6058L126.746 65.7203H126.149L125.208 65.7192L122.67 65.7181L122.668 68.8007Z" fill="white"/>
<path d="M120.89 72.0919L121.412 72.0922L121.413 71.0993L120.89 71.099L120.89 72.0919Z" fill="#3F3D56"/>
<path d="M113.262 70.2065L113.262 69.684L112.269 69.6834L112.269 70.206L113.262 70.2065Z" fill="#3F3D56"/>
<path d="M112.896 69.9138L112.839 69.9138C112.695 69.9137 112.553 69.8854 112.421 69.8304C112.288 69.7755 112.168 69.695 112.066 69.5935C111.965 69.492 111.885 69.3716 111.83 69.2391C111.775 69.1065 111.747 68.9645 111.747 68.8211C111.747 68.6777 111.775 68.5357 111.83 68.4032C111.885 68.2707 111.966 68.1504 112.067 68.049C112.169 67.9477 112.289 67.8673 112.422 67.8125C112.554 67.7576 112.696 67.7295 112.84 67.7296L112.897 67.7296L112.896 69.9138Z" fill="#3F3D56"/>
<path d="M104.033 74.2279C104.429 74.2709 104.826 74.173 105.156 73.9516C105.486 73.7301 105.728 73.3993 105.838 73.0174C105.948 72.6354 105.92 72.2269 105.758 71.8637C105.597 71.5005 105.312 71.206 104.955 71.032C104.444 71.6875 104.142 72.4816 104.089 73.3109L104.033 74.2279Z" fill="#3F3D56"/>
<path d="M119.417 65.7159L121.414 68.6836L121.415 67.2861L120.359 65.717L119.417 65.7159Z" fill="#F2F2F2"/>
<path d="M125.208 65.7191L126.745 68.0033V66.6057L126.149 65.7203L125.208 65.7191Z" fill="#F2F2F2"/>
<path d="M116.809 65.7147L118.883 68.7983H119.825L117.75 65.7147H116.809Z" fill="#F2F2F2"/>
<path d="M8.47146 52.6293C13.1501 52.6293 16.9429 48.8365 16.9429 44.1579C16.9429 39.4792 13.1501 35.6864 8.47146 35.6864C3.7928 35.6864 0 39.4792 0 44.1579C0 48.8365 3.7928 52.6293 8.47146 52.6293Z" fill="#3F3D56"/>
<path d="M8.50686 46.7083L4.26744 42.4689C4.12954 42.3307 4.05214 42.1434 4.05225 41.9481C4.05235 41.7529 4.12996 41.5657 4.26802 41.4276C4.40608 41.2896 4.59329 41.2119 4.78854 41.2118C4.98378 41.2117 5.17108 41.2891 5.30929 41.427L8.43636 44.5541L18.415 33.175C18.5439 33.0284 18.7257 32.939 18.9205 32.9264C19.1153 32.9137 19.3071 32.9789 19.4538 33.1076C19.6006 33.2363 19.6903 33.418 19.7032 33.6127C19.7161 33.8075 19.6512 33.9994 19.5227 34.1463L8.50686 46.7083Z" fill="#FFC428"/>
</g>
<defs>
<clipPath id="clip0_132_1435">
<rect width="150" height="83.2003" fill="white"/>
</clipPath>
</defs>
</svg>
