<svg width="150" height="99" viewBox="0 0 150 99" fill="none" xmlns="http://www.w3.org/2000/svg">
<g clip-path="url(#clip0_132_1513)">
<path d="M88.5708 6.47302H71.9934V6.78883H88.5708V6.47302Z" fill="#CCCCCC"/>
<path d="M59.047 6.47302H6.4729V6.78883H59.047V6.47302Z" fill="#CCCCCC"/>
<path d="M6.47302 13.1039C10.048 13.1039 12.946 10.2058 12.946 6.63086C12.946 3.05591 10.048 0.157837 6.47302 0.157837C2.89807 0.157837 0 3.05591 0 6.63086C0 10.2058 2.89807 13.1039 6.47302 13.1039Z" fill="#FFC428"/>
<path d="M35.9965 13.1039C39.5714 13.1039 42.4695 10.2058 42.4695 6.63086C42.4695 3.05591 39.5714 0.157837 35.9965 0.157837C32.4215 0.157837 29.5234 3.05591 29.5234 6.63086C29.5234 10.2058 32.4215 13.1039 35.9965 13.1039Z" fill="#3F3D56"/>
<path d="M65.5197 13.262C64.2082 13.262 62.9262 12.8731 61.8357 12.1445C60.7452 11.4159 59.8953 10.3803 59.3934 9.16859C58.8915 7.95694 58.7602 6.62366 59.0161 5.33737C59.2719 4.05108 59.9035 2.86954 60.8309 1.94218C61.7582 1.01482 62.9397 0.383276 64.226 0.127417C65.5123 -0.128443 66.8456 0.00287176 68.0573 0.504757C69.2689 1.00664 70.3045 1.85656 71.0332 2.94702C71.7618 4.03749 72.1507 5.31952 72.1507 6.63101C72.1507 8.38967 71.4521 10.0763 70.2085 11.3198C68.965 12.5634 67.2783 13.262 65.5197 13.262ZM65.5197 0.315806C64.2707 0.315806 63.0497 0.686188 62.0111 1.38011C60.9726 2.07404 60.1632 3.06034 59.6852 4.21429C59.2072 5.36824 59.0821 6.63802 59.3258 7.86305C59.5695 9.08808 60.171 10.2133 61.0542 11.0965C61.9374 11.9797 63.0626 12.5812 64.2876 12.8249C65.5127 13.0686 66.7825 12.9435 67.9364 12.4655C69.0904 11.9875 70.0767 11.1781 70.7706 10.1396C71.4645 9.10103 71.8349 7.88004 71.8349 6.63101C71.8349 4.95612 71.1695 3.34982 69.9852 2.16549C68.8009 0.981158 67.1946 0.315806 65.5197 0.315806Z" fill="#CCCCCC"/>
<path d="M95.0431 13.262C93.7316 13.262 92.4496 12.8731 91.3591 12.1445C90.2687 11.4159 89.4188 10.3803 88.9169 9.16859C88.415 7.95694 88.2837 6.62366 88.5395 5.33737C88.7954 4.05108 89.4269 2.86954 90.3543 1.94218C91.2817 1.01482 92.4632 0.383276 93.7495 0.127417C95.0358 -0.128443 96.369 0.00287176 97.5807 0.504757C98.7924 1.00664 99.828 1.85656 100.557 2.94702C101.285 4.03749 101.674 5.31952 101.674 6.63101C101.674 8.38967 100.976 10.0763 99.732 11.3198C98.4884 12.5634 96.8018 13.262 95.0431 13.262ZM95.0431 0.315806C93.7941 0.315806 92.5731 0.686188 91.5346 1.38011C90.496 2.07404 89.6866 3.06034 89.2086 4.21429C88.7307 5.36824 88.6056 6.63802 88.8493 7.86305C89.0929 9.08808 89.6944 10.2133 90.5776 11.0965C91.4608 11.9797 92.5861 12.5812 93.8111 12.8249C95.0361 13.0686 96.3059 12.9435 97.4598 12.4655C98.6138 11.9875 99.6001 11.1781 100.294 10.1396C100.988 9.10103 101.358 7.88004 101.358 6.63101C101.358 5.80169 101.195 4.98049 100.878 4.21429C100.56 3.44809 100.095 2.75191 99.5087 2.16549C98.9222 1.57907 98.226 1.11389 97.4598 0.796523C96.6936 0.479154 95.8724 0.315806 95.0431 0.315806Z" fill="#CCCCCC"/>
<path d="M5.97471 8.56083C5.861 8.56092 5.75034 8.52404 5.65942 8.45574L5.65382 8.45154L4.46575 7.54283C4.35463 7.45764 4.28191 7.33179 4.26358 7.19297C4.24525 7.05416 4.28281 6.91375 4.36801 6.80263C4.45321 6.69151 4.57906 6.61879 4.71787 6.60046C4.85669 6.58213 4.9971 6.6197 5.10822 6.70489L5.87767 7.29499L7.69595 4.92269C7.78111 4.81163 7.9069 4.73894 8.04564 4.72061C8.18439 4.70228 8.32473 4.73982 8.43581 4.82495L8.4246 4.84054L8.43616 4.82495C8.54713 4.91023 8.61972 5.03604 8.63801 5.17479C8.65631 5.31353 8.61879 5.45387 8.53372 5.56498L6.3949 8.35397C6.34536 8.41828 6.28167 8.4703 6.20876 8.50599C6.13586 8.54169 6.0557 8.56009 5.97453 8.55978L5.97471 8.56083Z" fill="white"/>
<path d="M115.003 34.3233C115.124 34.3786 115.241 34.4435 115.351 34.5174L126.413 29.7963L126.808 26.8824L131.228 26.8552L130.966 33.5388L116.366 37.4004C116.335 37.5018 116.298 37.6013 116.256 37.6982C116.044 38.1486 115.705 38.5266 115.28 38.7847C114.854 39.0428 114.362 39.1695 113.865 39.1489C113.368 39.1283 112.889 38.9613 112.486 38.6689C112.084 38.3765 111.777 37.9716 111.604 37.5053C111.43 37.039 111.399 36.5319 111.513 36.0477C111.627 35.5635 111.882 35.1239 112.245 34.784C112.608 34.4441 113.064 34.2191 113.555 34.1372C114.045 34.0553 114.549 34.1203 115.003 34.3238L115.003 34.3233Z" fill="#FEB8B8"/>
<path d="M132.835 94.885H129.811L128.373 83.2225H132.835L132.835 94.885Z" fill="#FEB8B8"/>
<path d="M127.652 94.0212H133.483V97.6916H123.98C123.98 96.7179 124.367 95.784 125.055 95.0954C125.744 94.4069 126.678 94.02 127.652 94.02V94.0212Z" fill="#2F2E41"/>
<path d="M144.594 94.0308L141.585 94.3268L139.01 82.8615L143.452 82.4252L144.594 94.0308Z" fill="#FEB8B8"/>
<path d="M139.349 93.6798L145.152 93.1083L145.511 96.7615L136.056 97.6928C135.961 96.724 136.254 95.7569 136.872 95.0044C137.489 94.2518 138.38 93.7754 139.349 93.6798H139.349Z" fill="#2F2E41"/>
<path d="M133.677 14.5122C137.022 14.5122 139.734 11.8002 139.734 8.45484C139.734 5.10944 137.022 2.39746 133.677 2.39746C130.331 2.39746 127.619 5.10944 127.619 8.45484C127.619 11.8002 130.331 14.5122 133.677 14.5122Z" fill="#FEB8B8"/>
<path d="M129.136 92.5264C128.876 92.5269 128.624 92.4356 128.425 92.2687C128.226 92.1018 128.092 91.8699 128.047 91.6139C126.483 82.9279 121.366 54.521 121.244 53.7335C121.241 53.7154 121.24 53.6971 121.24 53.6788V51.5605C121.24 51.4834 121.264 51.4081 121.309 51.3454L121.984 50.3996C122.016 50.354 122.059 50.3164 122.108 50.2897C122.156 50.263 122.211 50.2479 122.267 50.2454C126.12 50.0649 138.737 49.5354 139.347 50.2969C139.959 51.0615 139.742 53.3816 139.692 53.8386L139.695 53.8862L145.364 90.1401C145.408 90.4293 145.337 90.7243 145.165 90.9614C144.994 91.1984 144.736 91.3583 144.447 91.4065L140.906 91.9897C140.643 92.0321 140.373 91.9784 140.145 91.8384C139.918 91.6984 139.748 91.4814 139.667 91.2269C138.572 87.7277 134.9 75.9562 133.627 71.4012C133.621 71.3711 133.603 71.3448 133.577 71.3274C133.552 71.31 133.521 71.3027 133.49 71.3072C133.46 71.3116 133.432 71.3273 133.413 71.3512C133.393 71.3751 133.384 71.4055 133.386 71.4362C133.449 75.7783 133.603 86.8561 133.657 90.6824L133.662 91.0945C133.665 91.3735 133.562 91.6432 133.375 91.8503C133.189 92.0575 132.931 92.187 132.653 92.2132L129.239 92.5226C129.205 92.5256 129.17 92.5269 129.136 92.5264Z" fill="#2F2E41"/>
<path d="M129.832 16.8941C128.775 17.5226 128.143 18.6772 127.78 19.8542C127.108 22.0298 126.703 24.2791 126.575 26.5525L126.191 33.3588L121.442 51.4047C125.559 54.8873 127.932 54.0956 133.473 51.247C139.014 48.3985 139.647 52.1967 139.647 52.1967L140.755 36.8421L142.337 20.0635C141.982 19.6357 141.58 19.249 141.138 18.9108C139.675 17.7729 137.973 16.9819 136.16 16.5974C134.347 16.2129 132.47 16.2449 130.671 16.6911L129.832 16.8941Z" fill="#E6E6E6"/>
<path d="M128.29 37.9677C128.417 38.0155 128.541 38.0733 128.66 38.1404L139.598 32.6653L139.779 29.6994L144.291 29.3883L144.533 36.1493L129.916 40.9836C129.797 41.4958 129.524 41.9595 129.135 42.3131C128.746 42.6667 128.258 42.8934 127.737 42.9631C127.216 43.0327 126.685 42.942 126.217 42.7029C125.749 42.4639 125.364 42.0879 125.114 41.625C124.865 41.162 124.762 40.6341 124.82 40.1114C124.878 39.5887 125.094 39.096 125.438 38.6989C125.783 38.3017 126.241 38.019 126.75 37.8882C127.259 37.7574 127.797 37.7849 128.29 37.9669L128.29 37.9677Z" fill="#FEB8B8"/>
<path d="M142.259 20.1393C144.95 21.089 145.424 31.3791 145.424 31.3791C142.258 29.6379 138.459 32.4872 138.459 32.4872C138.459 32.4872 137.667 29.7959 136.718 26.3137C136.431 25.3341 136.397 24.2979 136.618 23.3015C136.839 22.3051 137.309 21.3809 137.984 20.615C137.984 20.615 139.567 19.1891 142.259 20.1393Z" fill="#E6E6E6"/>
<path d="M139.107 10.0563C138.352 9.4525 137.323 10.5495 137.323 10.5495L136.719 5.11689C136.719 5.11689 132.946 5.56897 130.53 4.96591C128.114 4.36285 127.737 7.15535 127.737 7.15535C127.613 6.0276 127.588 4.89108 127.662 3.75891C127.813 2.40041 129.775 1.04191 133.247 0.136189C136.719 -0.769537 138.53 3.15516 138.53 3.15516C140.946 4.3618 139.863 10.6607 139.107 10.0563Z" fill="#2F2E41"/>
<path d="M150 97.6926H20.8435V98.0762H150V97.6926Z" fill="#E6E6E6"/>
<path d="M33.3033 90.9187C33.8559 91.113 34.4493 91.1616 35.0263 91.06C35.6032 90.9584 36.1442 90.7098 36.5972 90.3384C37.751 89.3701 38.1127 87.7748 38.4069 86.2976L39.2775 81.9283L37.455 83.1833C36.1443 84.0857 34.8042 85.0172 33.8965 86.3244C32.9889 87.6316 32.5928 89.416 33.322 90.8304" fill="#E6E6E6"/>
<path d="M33.5847 96.5126C33.3552 94.8413 33.1193 93.1486 33.2803 91.4594C33.4232 89.9592 33.8809 88.494 34.8127 87.2926C35.3073 86.6562 35.9091 86.1109 36.5911 85.6812C36.7688 85.5689 36.9326 85.8508 36.7555 85.9625C35.5753 86.7082 34.6623 87.8094 34.1483 89.1074C33.5808 90.5509 33.4898 92.1243 33.5879 93.6574C33.6471 94.5847 33.7723 95.5058 33.8986 96.4257C33.9085 96.4673 33.9023 96.5112 33.8812 96.5484C33.86 96.5856 33.8256 96.6133 33.7847 96.6261C33.7431 96.6373 33.6987 96.6317 33.6612 96.6103C33.6237 96.589 33.5961 96.5538 33.5843 96.5123L33.5847 96.5126Z" fill="#F2F2F2"/>
<path d="M35.2358 93.8309C35.4729 94.1912 35.7987 94.4843 36.1819 94.6821C36.5651 94.8799 36.9927 94.9756 37.4237 94.9602C38.5312 94.9076 39.4546 94.1346 40.2857 93.4013L42.7442 91.2308L41.1172 91.153C39.9472 91.0969 38.7468 91.0447 37.6316 91.4056C36.5164 91.7664 35.4893 92.6348 35.2856 93.7877" fill="#E6E6E6"/>
<path d="M32.9361 97.4733C34.0395 95.5192 35.3213 93.3475 37.6101 92.6534C38.2465 92.461 38.9138 92.3921 39.576 92.4503C39.7848 92.4679 39.7326 92.7902 39.5235 92.7721C38.4134 92.68 37.3054 92.9731 36.3861 93.6022C35.5014 94.2043 34.8127 95.0414 34.2298 95.9293C33.8726 96.4723 33.5528 97.0399 33.233 97.606C33.131 97.7868 32.8333 97.6563 32.9361 97.4733Z" fill="#F2F2F2"/>
<path d="M110.771 41.0908H55.4768C55.2054 41.0904 54.9451 40.9825 54.7532 40.7905C54.5612 40.5985 54.4532 40.3383 54.4529 40.0668V26.3506C54.4532 26.0791 54.5612 25.8189 54.7532 25.6269C54.9451 25.435 55.2054 25.327 55.4768 25.3267H110.771C111.043 25.327 111.303 25.435 111.495 25.6269C111.687 25.8189 111.795 26.0791 111.795 26.3506V40.0668C111.795 40.3383 111.687 40.5985 111.495 40.7905C111.303 40.9825 111.043 41.0904 110.771 41.0908ZM55.4768 25.7363C55.3139 25.7365 55.1578 25.8013 55.0426 25.9165C54.9274 26.0317 54.8626 26.1879 54.8624 26.3508V40.067C54.8625 40.2299 54.9273 40.3861 55.0425 40.5013C55.1577 40.6165 55.3139 40.6813 55.4768 40.6814H110.771C110.934 40.6813 111.09 40.6165 111.206 40.5013C111.321 40.3861 111.386 40.2299 111.386 40.067V26.3506C111.386 26.1877 111.321 26.0315 111.206 25.9163C111.09 25.8011 110.934 25.7363 110.771 25.7362L55.4768 25.7363Z" fill="#E6E6E6"/>
<path d="M73.702 29.9015C73.5176 29.9015 73.3408 29.9747 73.2104 30.1051C73.0801 30.2355 73.0068 30.4123 73.0068 30.5967C73.0068 30.7811 73.0801 30.9579 73.2104 31.0883C73.3408 31.2186 73.5176 31.2919 73.702 31.2919H106.475C106.659 31.2919 106.836 31.2186 106.966 31.0883C107.097 30.9579 107.17 30.7811 107.17 30.5967C107.17 30.4123 107.097 30.2355 106.966 30.1051C106.836 29.9747 106.659 29.9015 106.475 29.9015H73.702Z" fill="#E6E6E6"/>
<path d="M73.702 34.0729C73.5176 34.0729 73.3408 34.1461 73.2104 34.2765C73.0801 34.4069 73.0068 34.5837 73.0068 34.7681C73.0068 34.9524 73.0801 35.1293 73.2104 35.2596C73.3408 35.39 73.5176 35.4633 73.702 35.4633H87.8043C87.9886 35.4633 88.1655 35.39 88.2958 35.2596C88.4262 35.1293 88.4995 34.9524 88.4995 34.7681C88.4995 34.5837 88.4262 34.4069 88.2958 34.2765C88.1655 34.1461 87.9886 34.0729 87.8043 34.0729H73.702Z" fill="#E6E6E6"/>
<path d="M64.1077 36.8219C66.4113 36.8219 68.2788 34.9544 68.2788 32.6508C68.2788 30.3471 66.4113 28.4796 64.1077 28.4796C61.804 28.4796 59.9365 30.3471 59.9365 32.6508C59.9365 34.9544 61.804 36.8219 64.1077 36.8219Z" fill="#E6E6E6"/>
<path d="M63.4523 34.969C63.3122 34.9692 63.1758 34.9238 63.0637 34.8397L63.0567 34.8345L61.5927 33.7145C61.4557 33.6096 61.3659 33.4544 61.3433 33.2833C61.3206 33.1122 61.3669 32.939 61.4718 32.802C61.5768 32.665 61.732 32.5752 61.9031 32.5526C62.0742 32.5299 62.2474 32.5761 62.3844 32.6811L63.3327 33.4082L65.5735 30.4849C65.6784 30.348 65.8334 30.2584 66.0043 30.2358C66.1753 30.2132 66.3482 30.2595 66.4851 30.3644L66.4713 30.3836L66.4857 30.3644C66.6224 30.4694 66.7118 30.6245 66.7344 30.7954C66.757 30.9664 66.7108 31.1393 66.606 31.2762L63.9704 34.7152C63.9095 34.7944 63.8311 34.8584 63.7413 34.9024C63.6516 34.9464 63.553 34.9691 63.453 34.9688L63.4523 34.969Z" fill="#FFC428"/>
</g>
<defs>
<clipPath id="clip0_132_1513">
<rect width="150" height="98.0762" fill="white"/>
</clipPath>
</defs>
</svg>
